<?xml version="1.0" encoding="UTF-8" standalone="no"?>
<svg
   xmlns:ns0="http://www.iki.fi/pav/software/textext/"
   xmlns:dc="http://purl.org/dc/elements/1.1/"
   xmlns:cc="http://creativecommons.org/ns#"
   xmlns:rdf="http://www.w3.org/1999/02/22-rdf-syntax-ns#"
   xmlns:svg="http://www.w3.org/2000/svg"
   xmlns="http://www.w3.org/2000/svg"
   xmlns:xlink="http://www.w3.org/1999/xlink"
   xmlns:sodipodi="http://sodipodi.sourceforge.net/DTD/sodipodi-0.dtd"
   xmlns:inkscape="http://www.inkscape.org/namespaces/inkscape"
   width="444.27728"
   height="495.3544"
   viewBox="-146 6 244.01835 277.6029"
   id="svg2"
   version="1.1"
   inkscape:version="0.48.5 r10040"
   sodipodi:docname="blockDiagTablaDiscovery.svg"
   inkscape:export-filename="E:\UPFWork\PhD\PapersShared\ISMIR15_PercPatterns\resources\BlockDiagram\blockDiag_new.png"
   inkscape:export-xdpi="299.94754"
   inkscape:export-ydpi="299.94754">
  <sodipodi:namedview
     pagecolor="#ffffff"
     bordercolor="#666666"
     borderopacity="1"
     objecttolerance="10"
     gridtolerance="10"
     guidetolerance="10"
     inkscape:pageopacity="0"
     inkscape:pageshadow="2"
     inkscape:window-width="1304"
     inkscape:window-height="746"
     id="namedview318"
     showgrid="false"
     inkscape:zoom="1.9029841"
     inkscape:cx="283.17676"
     inkscape:cy="106.38586"
     inkscape:window-x="54"
     inkscape:window-y="-8"
     inkscape:window-maximized="1"
     inkscape:current-layer="svg2"
     fit-margin-top="0"
     fit-margin-left="0"
     fit-margin-right="0"
     fit-margin-bottom="0" />
  <metadata
     id="metadata322">
    <rdf:RDF>
      <cc:Work
         rdf:about="">
        <dc:format>image/svg+xml</dc:format>
        <dc:type
           rdf:resource="http://purl.org/dc/dcmitype/StillImage" />
        <dc:title></dc:title>
      </cc:Work>
    </rdf:RDF>
  </metadata>
  <defs
     id="defs320" />
  <g
     id="g4"
     transform="translate(-1.9517103,-0.36504614)">
    <rect
       style="fill:none;stroke:#000000;stroke-width:1.12082541;stroke-miterlimit:4;stroke-dasharray:none"
       x="13.5417"
       y="21.3965"
       width="60"
       height="38"
       id="rect6" />
    <text
       font-size="10.16"
       style="font-size:10.15999985px;font-style:normal;font-weight:normal;text-anchor:middle;fill:#000000;font-family:Times New Roman"
       x="43.541698"
       y="36.796501"
       id="text8">
      <tspan
         x="43.541698"
         y="36.796501"
         id="tspan10">Feature</tspan>
      <tspan
         x="43.541698"
         y="49.496498"
         id="tspan12">extraction</tspan>
    </text>
  </g>
  <rect
     style="fill:none;stroke:#000000;stroke-width:1.12082541;stroke-miterlimit:4;stroke-dasharray:none"
     x="-136.0567"
     y="8.5782537"
     width="116"
     height="136"
     id="rect14" />
  <text
     font-size="10.16"
     style="font-size:10.15999985px;font-style:normal;font-weight:normal;text-anchor:start;fill:#000000;font-family:Times New Roman"
     x="-116.05672"
     y="18.728254"
     id="text16">
    <tspan
       x="-116.05672"
       y="18.728254"
       id="tspan18">Audio recordings</tspan>
  </text>
  <text
     font-size="10.16"
     style="font-size:10.15999985px;font-style:normal;font-weight:normal;text-anchor:start;fill:#000000;font-family:Times New Roman"
     x="-106.68383"
     y="137.73854"
     id="text20">
    <tspan
       x="-106.68383"
       y="137.73854"
       id="tspan22">Transcriptions</tspan>
  </text>
  <g
     id="g24"
     transform="translate(-1.9517103,-0.36504614)">
    <rect
       style="fill:none;stroke:#000000;stroke-width:1.12082541;stroke-miterlimit:4;stroke-dasharray:none"
       x="3.7488799"
       y="117.943"
       width="79.800003"
       height="31.4"
       id="rect26" />
    <text
       font-size="10.16"
       style="font-size:10.15999985px;font-style:normal;font-weight:normal;text-anchor:middle;fill:#000000;font-family:Times New Roman"
       x="43.648899"
       y="130.043"
       id="text28">
      <tspan
         x="43.648899"
         y="130.043"
         id="tspan30">Embedded model</tspan>
      <tspan
         x="43.648899"
         y="142.743"
         id="tspan32">re-estimation</tspan>
    </text>
  </g>
  <line
     style="fill:none;stroke:#000000;stroke-width:1.25048375;stroke-miterlimit:4;stroke-dasharray:1.2504839, 2.50096781;stroke-dashoffset:0"
     x1="-146.0567"
     y1="156.64195"
     x2="95.718216"
     y2="156.64195"
     id="line34" />
  <g
     id="g36"
     transform="translate(-1.9517103,-7.0899985)">
    <rect
       style="fill:none;stroke:#000000;stroke-width:1.12082541;stroke-miterlimit:4;stroke-dasharray:none"
       x="8.7028799"
       y="181.489"
       width="70"
       height="38"
       id="rect38" />
    <text
       font-size="12.8"
       style="font-size:12.80000019px;font-style:normal;font-weight:normal;text-anchor:middle;fill:#000000;font-family:Times New Roman"
       x="43.7029"
       y="195.88901"
       id="text40">
      <tspan
         x="43.7029"
         y="195.88901"
         id="tspan42">Viterbi</tspan>
      <tspan
         x="43.7029"
         y="211.88901"
         id="tspan44">decoding</tspan>
    </text>
  </g>
  <text
     font-size="9.03111"
     style="font-size:9.03110981px;font-style:normal;font-weight:normal;text-anchor:middle;fill:#000000;font-family:Times New Roman"
     x="-127.78764"
     y="164.21548"
     id="text46">
    <tspan
       style="font-size:8.96660328px"
       x="-127.78764"
       y="164.21548"
       id="tspan48">Testing</tspan>
  </text>
  <text
     font-size="9.03111"
     style="font-size:9.03110981px;font-style:normal;font-weight:normal;text-anchor:start;fill:#000000;font-family:Times New Roman"
     x="-142.8847"
     y="153.43195"
     id="text50">
    <tspan
       style="font-size:8.96660328px"
       x="-142.8847"
       y="153.43195"
       id="tspan52">Training</tspan>
  </text>
  <g
     id="g54"
     transform="translate(-1.9517103,-7.0899985)">
    <rect
       style="fill:none;stroke:#000000;stroke-width:1.12082541;stroke-miterlimit:4;stroke-dasharray:none"
       x="-65.882896"
       y="184.78101"
       width="57.200001"
       height="31.4"
       id="rect56" />
    <text
       font-size="10.16"
       style="font-size:10.15999985px;font-style:normal;font-weight:normal;text-anchor:middle;fill:#000000;font-family:Times New Roman"
       x="-37.282902"
       y="196.881"
       id="text58">
      <tspan
         x="-37.282902"
         y="196.881"
         id="tspan60">Feature</tspan>
      <tspan
         x="-37.282902"
         y="209.58099"
         id="tspan62">extraction</tspan>
    </text>
  </g>
  <g
     id="g64"
     transform="translate(-13.159964,-10.452475)">
    <rect
       style="fill:none;stroke:#000000;stroke-width:1.12082541;stroke-miterlimit:4;stroke-dasharray:none"
       x="13.2333"
       y="241.00301"
       width="60.849998"
       height="38"
       id="rect66" />
    <text
       font-size="12.8"
       style="font-size:12.80000019px;font-style:normal;font-weight:normal;text-anchor:middle;fill:#000000;font-family:Times New Roman"
       x="43.658298"
       y="263.40302"
       id="text68">
      <tspan
         style="font-weight:bold;-inkscape-font-specification:'Times New Roman, Bold'"
         x="43.658298"
         y="263.40302"
         id="tspan70">RLCS</tspan>
    </text>
  </g>
  <text
     font-size="9.03111"
     style="font-size:9.03110981px;font-style:normal;font-weight:normal;text-anchor:middle;fill:#000000;font-family:Times New Roman"
     x="-119.80132"
     y="180.37804"
     id="text72">
    <tspan
       x="-119.80132"
       y="180.37804"
       id="tspan74">Test Audio</tspan>
  </text>
  <g
     id="g76"
     transform="translate(-1.9517103,-7.0899985)">
    <line
       style="fill:none;stroke:#000000;stroke-width:1.12082541;stroke-miterlimit:4;stroke-dasharray:none"
       x1="-8.6829004"
       y1="200.481"
       x2="3.46681"
       y2="200.487"
       id="line78" />
    <polygon
       transform="matrix(1.8085015,0,0,0.99999998,-11.817244,160.0877)"
       style="fill:#000000"
       points="7.29892,42.3756 8.30564,40.3789 7.31237,38.3756 11.3056,40.389 "
       id="polygon216-8" />
  </g>
  <g
     id="g84"
     transform="translate(-12.553405,-6.795507)">
    <line
       style="fill:none;stroke:#000000;stroke-width:1.12082541;stroke-miterlimit:4;stroke-dasharray:none"
       x1="-28.1047"
       y1="257.77036"
       x2="7.99721"
       y2="257.76236"
       id="line86" />
    <polygon
       transform="matrix(1.8085015,0,0,0.99999998,-7.5471175,217.48057)"
       style="fill:#000000"
       points="7.29892,42.3756 8.30564,40.3789 7.31237,38.3756 11.3056,40.389 "
       id="polygon216-4" />
    <polygon
       transform="matrix(1.8085015,0,0,0.99999998,68.431697,217.33333)"
       style="fill:#000000"
       points="7.31237,38.3756 11.3056,40.389 7.29892,42.3756 8.30564,40.3789 "
       id="polygon216-5" />
  </g>
  <g
     id="g92"
     transform="translate(-1.9517103,-0.36504614)">
    <rect
       style="fill:none;stroke:#4d4d4d;stroke-width:1"
       x="-116.605"
       y="22.4433"
       width="74.4617"
       height="29"
       id="rect94" />
    <image
       x="-116.105"
       y="22.9433"
       width="73.4617"
       height="28"
       xlink:href="file:///E:/UPFWork/PhD/PapersShared/ISMIR15_PercPatterns/resources/BlockDiagram/waveform.png"
       id="image96" />
  </g>
  <g
     id="g98"
     transform="translate(-1.9517103,-0.36504614)">
    <rect
       style="fill:none;stroke:#4d4d4d;stroke-width:1"
       x="-112.605"
       y="26.4433"
       width="74.4617"
       height="29"
       id="rect100" />
    <image
       x="-112.105"
       y="26.9433"
       width="73.4617"
       height="28"
       xlink:href="file:///E:/UPFWork/PhD/PapersShared/ISMIR15_PercPatterns/resources/BlockDiagram/waveform.png"
       id="image102" />
  </g>
  <g
     id="g104"
     transform="translate(-1.9517103,-0.36504614)">
    <rect
       style="fill:none;stroke:#4d4d4d;stroke-width:1"
       x="-108.605"
       y="30.4433"
       width="74.4617"
       height="29"
       id="rect106" />
    <image
       x="-108.105"
       y="30.9433"
       width="73.4617"
       height="28"
       xlink:href="file:///E:/UPFWork/PhD/PapersShared/ISMIR15_PercPatterns/resources/BlockDiagram/waveform.png"
       id="image108" />
  </g>
  <text
     font-size="12.8"
     style="font-size:12.80000019px;font-style:normal;font-weight:normal;text-anchor:start;fill:#000000;font-family:sans-serif"
     x="-69.556412"
     y="103.27296"
     id="text110">
    <tspan
       x="-69.556412"
       y="103.27296"
       id="tspan112" />
  </text>
  <text
     font-size="12.8"
     style="font-size:12.80000019px;font-style:normal;font-weight:normal;text-anchor:start;fill:#000000;font-family:sans-serif"
     x="-69.556412"
     y="103.27296"
     id="text114">
    <tspan
       x="-69.556412"
       y="103.27296"
       id="tspan116" />
  </text>
  <text
     font-size="12.8"
     style="font-size:12.80000019px;font-style:normal;font-weight:normal;text-anchor:start;fill:#000000;font-family:sans-serif"
     x="-69.556412"
     y="103.27296"
     id="text118">
    <tspan
       x="-69.556412"
       y="103.27296"
       id="tspan120" />
  </text>
  <text
     font-size="12.8"
     style="font-size:12.80000019px;font-style:normal;font-weight:normal;text-anchor:start;fill:#000000;font-family:sans-serif"
     x="-69.556412"
     y="103.27296"
     id="text122">
    <tspan
       x="-69.556412"
       y="103.27296"
       id="tspan124" />
  </text>
  <text
     font-size="12.8"
     style="font-size:12.80000019px;font-style:normal;font-weight:normal;text-anchor:start;fill:#000000;font-family:sans-serif"
     x="-69.556412"
     y="103.27296"
     id="text126">
    <tspan
       x="-69.556412"
       y="103.27296"
       id="tspan128" />
  </text>
  <g
     id="g130"
     transform="translate(-1.9517103,-0.36504614)">
    <rect
       style="fill:#ffffff"
       x="-118.105"
       y="66.443298"
       width="77"
       height="50.388901"
       id="rect132" />
    <rect
       style="fill:none;stroke:#4d4d4d;stroke-width:1"
       x="-118.105"
       y="66.443298"
       width="77"
       height="50.388901"
       id="rect134" />
    <text
       font-size="7.90222"
       style="font-size:7.90221977px;font-style:normal;font-weight:normal;text-anchor:middle;fill:#000000;font-family:Cousine"
       x="-79.604698"
       y="73.243301"
       id="text136">
      <tspan
         x="-79.604698"
         y="73.243301"
         id="tspan138">0.153 0.484 DHA</tspan>
      <tspan
         x="-79.604698"
         y="83.121101"
         id="tspan140">0.453 0.598 KA</tspan>
      <tspan
         x="-79.604698"
         y="92.998901"
         id="tspan142">0.598 0.738 TA</tspan>
      <tspan
         x="-79.604698"
         y="102.877"
         id="tspan144">.... .... ...</tspan>
      <tspan
         x="-79.604698"
         y="112.754"
         id="tspan146">36.865 50.125 KI</tspan>
    </text>
  </g>
  <g
     id="g148"
     transform="translate(-1.9517103,-0.36504614)">
    <rect
       style="fill:#ffffff"
       x="-114.105"
       y="70.443298"
       width="77"
       height="50.388901"
       id="rect150" />
    <rect
       style="fill:none;stroke:#4d4d4d;stroke-width:1"
       x="-114.105"
       y="70.443298"
       width="77"
       height="50.388901"
       id="rect152" />
    <text
       font-size="7.90222"
       style="font-size:7.90221977px;font-style:normal;font-weight:normal;text-anchor:middle;fill:#000000;font-family:Cousine"
       x="-75.604698"
       y="77.243301"
       id="text154">
      <tspan
         x="-75.604698"
         y="77.243301"
         id="tspan156">0.186 0.523 TIN</tspan>
      <tspan
         x="-75.604698"
         y="87.121101"
         id="tspan158">0.453 0.598 RA</tspan>
      <tspan
         x="-75.604698"
         y="96.998901"
         id="tspan160">0.598 0.738 TA</tspan>
      <tspan
         x="-75.604698"
         y="106.877"
         id="tspan162">.... .... ...</tspan>
      <tspan
         x="-75.604698"
         y="116.754"
         id="tspan164">42.965 50.125 KA</tspan>
    </text>
  </g>
  <g
     id="g166"
     transform="translate(-1.9517103,-0.36504614)">
    <rect
       style="fill:#ffffff"
       x="-110.105"
       y="74.443298"
       width="77"
       height="50.388901"
       id="rect168" />
    <rect
       style="fill:none;stroke:#4d4d4d;stroke-width:1"
       x="-110.105"
       y="74.443298"
       width="77"
       height="50.388901"
       id="rect170" />
    <text
       font-size="7.90222"
       style="font-size:7.90221977px;font-style:normal;font-weight:normal;text-anchor:middle;fill:#000000;font-family:Cousine"
       x="-71.604698"
       y="81.243301"
       id="text172">
      <tspan
         x="-71.604698"
         y="81.243301"
         id="tspan174">0.188 0.387 KI</tspan>
      <tspan
         x="-71.604698"
         y="91.121101"
         id="tspan176">0.453 0.598 TA</tspan>
      <tspan
         x="-71.604698"
         y="100.999"
         id="tspan178">0.598 0.738 TA</tspan>
      <tspan
         x="-71.604698"
         y="110.877"
         id="tspan180">.... .... ...</tspan>
      <tspan
         x="-71.604698"
         y="120.754"
         id="tspan182">36.865 50.125 KI</tspan>
    </text>
  </g>
  <g
     id="g184"
     transform="translate(-1.9517103,-0.36504614)">
    <rect
       style="fill:#ffffff"
       x="-106.105"
       y="78.443298"
       width="77"
       height="50.388901"
       id="rect186" />
    <rect
       style="fill:none;stroke:#4d4d4d;stroke-width:1"
       x="-106.105"
       y="78.443298"
       width="77"
       height="50.388901"
       id="rect188" />
    <text
       font-size="7.90222"
       style="font-size:7.90221977px;font-style:normal;font-weight:normal;text-anchor:middle;fill:#000000;font-family:Cousine"
       x="-67.604698"
       y="85.243301"
       id="text190">
      <tspan
         x="-67.604698"
         y="85.243301"
         id="tspan192">0.058 0.239 DHA</tspan>
      <tspan
         x="-67.604698"
         y="95.121101"
         id="tspan194">0.239 0.465 GE</tspan>
      <tspan
         x="-67.604698"
         y="104.999"
         id="tspan196">0.465 0.538 TA</tspan>
      <tspan
         x="-67.604698"
         y="114.877"
         id="tspan198">.... .... ...</tspan>
      <tspan
         x="-67.604698"
         y="124.754"
         id="tspan200">49.911 50.125 NA</tspan>
    </text>
  </g>
  <g
     id="g202"
     transform="translate(-1.9517103,-0.36504614)">
    <rect
       style="fill:none;stroke:#000000;stroke-width:1.12082541;stroke-miterlimit:4;stroke-dasharray:none"
       x="12.1453"
       y="75.400497"
       width="62.650002"
       height="31.4"
       id="rect204" />
    <text
       font-size="10.16"
       style="font-size:10.15999985px;font-style:normal;font-weight:normal;text-anchor:middle;fill:#000000;font-family:Times New Roman"
       x="43.470299"
       y="87.500504"
       id="text206">
      <tspan
         x="43.470299"
         y="87.500504"
         id="tspan208">Isolated</tspan>
      <tspan
         x="43.470299"
         y="100.2"
         id="tspan210">stroke models</tspan>
    </text>
  </g>
  <g
     id="g212"
     transform="translate(-1.9517103,-0.36504614)">
    <line
       style="fill:none;stroke:#000000;stroke-width:1.12082541;stroke-miterlimit:4;stroke-dasharray:none"
       x1="-30.643"
       y1="40.247898"
       x2="8.3056402"
       y2="40.378899"
       id="line214" />
    <polygon
       transform="matrix(1.8085015,0,0,1,-9.0263133,50.652543)"
       style="fill:#000000"
       points="7.31237,38.3756 11.3056,40.389 7.29892,42.3756 8.30564,40.3789 "
       id="polygon216" />
    <polygon
       transform="matrix(1.8085015,0,0,0.99999998,-7.3427309,0.00628117)"
       style="fill:#000000"
       points="8.30564,40.3789 7.31237,38.3756 11.3056,40.389 7.29892,42.3756 "
       id="polygon216-1" />
    <polygon
       transform="matrix(0.0012568,1.8085011,-0.99999974,6.9494197e-4,83.874572,54.452284)"
       style="fill:#000000"
       points="7.29892,42.3756 8.30564,40.3789 7.31237,38.3756 11.3056,40.389 "
       id="polygon216-7" />
    <polygon
       transform="matrix(0.0012568,1.8085011,-0.99999975,6.9493977e-4,83.877083,97.300101)"
       style="fill:#000000"
       points="11.3056,40.389 7.29892,42.3756 8.30564,40.3789 7.31237,38.3756 "
       id="polygon216-7-4" />
  </g>
  <g
     id="g220"
     transform="translate(-1.9517103,-0.36504614)">
    <line
       style="fill:none;stroke:#000000;stroke-width:1.12082541;stroke-miterlimit:4;stroke-dasharray:none"
       x1="-29.1047"
       y1="91.040497"
       x2="6.9092202"
       y2="91.092903"
       id="line222" />
  </g>
  <g
     id="g228"
     transform="translate(-1.9517103,-0.36504614)">
    <line
       style="fill:none;stroke:#000000;stroke-width:1.12082541;stroke-miterlimit:4;stroke-dasharray:none"
       x1="43.541698"
       y1="59.3965"
       x2="43.4869"
       y2="71.664497"
       id="line230" />
    <polygon
       style="fill:#000000"
       points="44.4892,71.1689 43.4803,73.1645 42.4892,71.16 43.4869,71.6645 "
       id="polygon232" />
  </g>
  <g
     id="g236"
     transform="translate(-1.9517103,-0.36504614)">
    <line
       style="fill:none;stroke:#000000;stroke-width:1.12082541;stroke-miterlimit:4;stroke-dasharray:none"
       x1="43.470299"
       y1="106.8"
       x2="43.512901"
       y2="113.203"
       id="line238" />
    <polygon
       style="fill:#000000"
       points="44.5095,112.696 43.5229,114.703 42.5096,112.709 43.5129,113.203 "
       id="polygon240" />
  </g>
  <g
     id="g244"
     transform="translate(-1.9517103,-7.0899985)">
    <rect
       style="fill:none;stroke:#4d4d4d;stroke-width:1"
       x="-134.383"
       y="190.049"
       width="53"
       height="20.819901"
       id="rect246" />
    <image
       x="-133.883"
       y="190.549"
       width="52"
       height="19.819901"
       xlink:href="file:///E:/UPFWork/PhD/PapersShared/ISMIR15_PercPatterns/resources/BlockDiagram/waveform.png"
       id="image248" />
  </g>
  <text
     sodipodi:linespacing="125%"
     font-size="10.16"
     style="font-size:11.20825386px;font-style:normal;font-variant:normal;font-weight:bold;font-stretch:normal;text-align:start;line-height:125%;writing-mode:lr-tb;text-anchor:start;fill:#000000;font-family:Times New Roman;-inkscape-font-specification:'Times New Roman, Bold'"
     x="-117.82661"
     y="281.18393"
     id="text250">
    <tspan
       style="font-size:11.20825386px;font-style:normal;font-variant:normal;font-weight:bold;font-stretch:normal;text-align:start;line-height:125%;writing-mode:lr-tb;text-anchor:start;font-family:Times New Roman;-inkscape-font-specification:'Times New Roman, Bold'"
       x="-117.82661"
       y="281.18393"
       id="tspan252">Pattern library,</tspan>
  </text>
  <text
     font-size="12.8"
     style="font-size:12.80000019px;font-style:normal;font-weight:normal;text-anchor:start;fill:#000000;font-family:sans-serif"
     x="-118.05672"
     y="255.12395"
     id="text254">
    <tspan
       x="-118.05672"
       y="255.12395"
       id="tspan256" />
  </text>
  <g
     id="g258"
     transform="translate(-12.039139,-11.5733)">
    <rect
       style="fill:none;stroke:#000000;stroke-width:1"
       x="-98.104698"
       y="236.297"
       width="70"
       height="47.430199"
       id="rect260" />
    <text
       font-size="8.28604"
       style="font-size:8.28604031px;font-style:normal;font-weight:normal;text-anchor:middle;fill:#000000;font-family:Cousine"
       x="-63.104698"
       y="245.897"
       id="text262">
      <tspan
         x="-63.104698"
         y="245.897"
         id="tspan264">KI TA TA KA</tspan>
      <tspan
         x="-63.104698"
         y="256.255"
         id="tspan266">TA TA KI TA</tspan>
      <tspan
         x="-63.104698"
         y="266.612"
         id="tspan268">... ... ...</tspan>
      <tspan
         x="-63.104698"
         y="276.97"
         id="tspan270">DHE RE DHE RE</tspan>
    </text>
  </g>
  <text
     font-size="12.8"
     style="font-size:12.80000019px;font-style:normal;font-weight:normal;text-anchor:start;fill:#000000;font-family:sans-serif"
     x="-65.056412"
     y="259.64694"
     id="text272">
    <tspan
       x="-65.056412"
       y="259.64694"
       id="tspan274" />
  </text>
  <g
     id="g276"
     transform="translate(-1.9517103,-7.0899985)">
    <line
       style="fill:none;stroke:#000000;stroke-width:1.12082541;stroke-miterlimit:4;stroke-dasharray:none"
       x1="-81.882896"
       y1="200.459"
       x2="-71.119003"
       y2="200.474"
       id="line278" />
    <polygon
       transform="matrix(1.8085015,0,0,0.99999998,-86.323602,160.0877)"
       style="fill:#000000"
       points="7.29892,42.3756 8.30564,40.3789 7.31237,38.3756 11.3056,40.389 "
       id="polygon216-82" />
  </g>
  <g
     id="g284"
     transform="matrix(1,0,0,0.78007286,-1.9517103,32.725253)">
    <line
       style="fill:none;stroke:#000000;stroke-width:1.26902556;stroke-miterlimit:4;stroke-dasharray:none"
       x1="43.648899"
       y1="149.343"
       x2="43.694099"
       y2="176.25301"
       id="line286" />
    <polygon
       transform="matrix(0.0012568,2.3183746,-0.99999975,8.9086521e-4,84.097951,154.79602)"
       style="fill:#000000"
       points="8.30564,40.3789 7.31237,38.3756 11.3056,40.389 7.29892,42.3756 "
       id="polygon216-7-4-9" />
  </g>
  <g
     id="g292"
     transform="matrix(1,0,0,0.87443019,-12.039139,20.453511)">
    <line
       style="fill:none;stroke:#000000;stroke-width:1.16865456;stroke-miterlimit:4;stroke-dasharray:none"
       x1="43.680901"
       y1="219.34818"
       x2="43.664001"
       y2="235.97966"
       id="line294" />
    <polygon
       transform="matrix(0.0012568,1.8085011,-0.99999975,6.9493977e-4,84.025422,219.98109)"
       style="fill:#000000"
       points="11.3056,40.389 7.29892,42.3756 8.30564,40.3789 7.31237,38.3756 "
       id="polygon216-7-4-4" />
  </g>
  <g
     id="g300"
     transform="translate(-12.333631,-9.0371578)">
    <line
       style="fill:none;stroke:#000000;stroke-width:1.12082541;stroke-miterlimit:4;stroke-dasharray:none"
       x1="72.962471"
       y1="260.00299"
       x2="83.538376"
       y2="259.96301"
       id="line302" />
  </g>
  <text
     font-size="11.2889"
     style="font-size:11.28890038px;font-style:normal;font-weight:normal;text-anchor:start;fill:#000000;font-family:Times New Roman"
     x="-18.05641"
     y="16.578255"
     id="text308">
    <tspan
       x="-18.05641"
       y="16.578255"
       id="tspan310">Training Data</tspan>
  </text>
  <g
     id="g312"
     transform="translate(-1.9517103,-0.36504614)">
    <rect
       style="fill:none;stroke:#4d4d4d;stroke-width:1"
       x="-104.605"
       y="34.443298"
       width="74.4617"
       height="29"
       id="rect314" />
    <image
       x="-104.105"
       y="34.943298"
       width="73.4617"
       height="28"
       xlink:href="file:///E:/UPFWork/PhD/PapersShared/ISMIR15_PercPatterns/resources/BlockDiagram/waveform.png"
       id="image316" />
  </g>
  <g
     style="font-style:normal;font-variant:normal;font-weight:normal;font-stretch:normal;letter-spacing:normal;word-spacing:normal;text-anchor:start;fill:none;stroke:#000000;stroke-linecap:butt;stroke-linejoin:miter;stroke-miterlimit:10.43299961;stroke-opacity:1;stroke-dasharray:none;stroke-dashoffset:0"
     id="g5042"
     transform="matrix(1.1885891,0,0,-1.1885891,-307.08839,1121.6148)"
     xml:space="preserve"
     stroke-miterlimit="10.433"
     font-style="normal"
     font-variant="normal"
     font-weight="normal"
     font-stretch="normal"
     font-size-adjust="none"
     letter-spacing="normal"
     word-spacing="normal"
     ns0:text="$\\mathcal{P}$"
     ns0:preamble="">
<path
   style="fill:#000000;stroke-width:0"
   inkscape:connector-curvature="0"
   d="m 226.9,713.92 -0.13,0 -0.13,0 -0.13,-0.01 -0.12,-0.02 -0.12,-0.01 -0.12,-0.02 -0.12,-0.02 -0.11,-0.03 -0.12,-0.03 -0.11,-0.03 -0.11,-0.03 -0.1,-0.04 -0.1,-0.03 -0.1,-0.04 -0.1,-0.04 -0.09,-0.04 -0.09,-0.05 -0.09,-0.04 -0.09,-0.05 -0.08,-0.04 -0.08,-0.05 -0.07,-0.05 -0.08,-0.05 -0.07,-0.05 -0.06,-0.04 -0.06,-0.05 -0.06,-0.05 -0.06,-0.05 -0.05,-0.05 -0.05,-0.04 -0.04,-0.05 -0.04,-0.04 c -0.35,-0.4 -0.38,-0.69 -0.38,-0.71 0,-0.06 0.04,-0.08 0.1,-0.08 0.16,0 0.39,0.14 0.47,0.19 0.21,0.14 0.24,0.2 0.3,0.39 0.14,0.4 0.42,0.75 1.67,0.81 -0.18,-2.24 -0.77,-4.42 -1.61,-6.5 -0.06,-0.15 -0.06,-0.17 -0.06,-0.18 0,-0.03 0.03,-0.07 0.1,-0.07 0.16,0 0.64,0.22 0.75,0.47 0.51,1.22 1.33,3.51 1.63,6.28 h 0.52 c 1.22,0 2.38,-0.47 2.38,-1.47 0,-0.74 -0.72,-2.14 -2.65,-2.2 -0.21,-0.01 -0.32,-0.01 -0.6,-0.19 -0.18,-0.12 -0.26,-0.23 -0.26,-0.29 0,-0.07 0.06,-0.07 0.19,-0.07 1.82,0 4.17,1.54 4.17,3.18 0,1.13 -1.35,1.58 -2.5,1.58 z"
   id="path5044" />
</g>  <rect
     y="6.4893155"
     x="-148.08211"
     height="211.18106"
     width="237.15277"
     id="rect5223"
     style="fill:none;stroke:#000000;stroke-width:0.97863078;stroke-miterlimit:4;stroke-opacity:1;stroke-dasharray:2.93589236, 2.93589236;stroke-dashoffset:0" />
  <text
     sodipodi:linespacing="125%"
     id="text5993"
     y="213.89761"
     x="-146.51454"
     style="font-size:22.41650772px;font-style:normal;font-variant:normal;font-weight:bold;font-stretch:normal;text-align:start;line-height:125%;letter-spacing:0px;word-spacing:0px;writing-mode:lr-tb;text-anchor:start;fill:#000000;fill-opacity:1;stroke:none;font-family:Sans;-inkscape-font-specification:Sans Bold"
     xml:space="preserve"><tspan
       style="font-size:11.20825386px;font-style:normal;font-variant:normal;font-weight:bold;font-stretch:normal;text-align:start;line-height:125%;writing-mode:lr-tb;text-anchor:start;font-family:Times New Roman;-inkscape-font-specification:'Times New Roman, Bold'"
       y="213.89761"
       x="-146.51454"
       id="tspan5995"
       sodipodi:role="line">Transcription</tspan></text>
  <g
     style="font-style:normal;font-variant:normal;font-weight:normal;font-stretch:normal;letter-spacing:normal;word-spacing:normal;text-anchor:start;fill:none;stroke:#000000;stroke-linecap:butt;stroke-linejoin:miter;stroke-miterlimit:10.43299961;stroke-opacity:1;stroke-dasharray:none;stroke-dashoffset:0"
     ns0:preamble=""
     ns0:text="$f[n]$"
     word-spacing="normal"
     letter-spacing="normal"
     font-size-adjust="none"
     font-stretch="normal"
     font-weight="normal"
     font-variant="normal"
     font-style="normal"
     stroke-miterlimit="10.433"
     xml:space="preserve"
     transform="matrix(0.94836636,0,0,-0.94836636,-308.22861,850.42629)"
     id="g3336">
<path
   id="path3338"
   d="m 227.09,711.11 h 0.86 c 0.2,0 0.3,0 0.3,0.19 0,0.11 -0.1,0.11 -0.27,0.11 h -0.83 l 0.21,1.14 c 0.04,0.21 0.18,0.92 0.24,1.03 0.09,0.19 0.26,0.34 0.47,0.34 0.04,0 0.3,0 0.49,-0.18 -0.44,-0.04 -0.54,-0.39 -0.54,-0.53 0,-0.23 0.18,-0.35 0.37,-0.35 0.26,0 0.54,0.22 0.54,0.6 0,0.45 -0.45,0.68 -0.86,0.68 -0.34,0 -0.97,-0.18 -1.27,-1.16 -0.06,-0.21 -0.09,-0.31 -0.33,-1.57 h -0.68 c -0.19,0 -0.3,0 -0.3,-0.19 0,-0.11 0.08,-0.11 0.27,-0.11 h 0.66 l -0.74,-3.94 c -0.19,-0.96 -0.35,-1.87 -0.87,-1.87 -0.04,0 -0.29,0 -0.48,0.18 0.46,0.03 0.55,0.39 0.55,0.54 0,0.23 -0.18,0.35 -0.37,0.35 -0.26,0 -0.55,-0.22 -0.55,-0.6 0,-0.45 0.44,-0.68 0.85,-0.68 0.55,0 0.95,0.58 1.12,0.96 0.32,0.63 0.55,1.83 0.56,1.9 z"
   inkscape:connector-curvature="0"
   style="fill:#000000;stroke-width:0" />
<polygon
   id="polygon3340"
   points="231.92,705.03 230.96,705.03 230.96,714.19 231.92,714.19 231.92,714.59 230.56,714.59 230.56,704.64 231.92,704.64 "
   style="fill:#000000;stroke-width:0" />
<path
   id="path3342"
   d="m 233.03,707.71 -0.01,-0.01 0,-0.02 0,-0.01 -0.01,-0.02 0,-0.03 -0.01,-0.03 -0.01,-0.03 -0.01,-0.04 0,-0.03 -0.01,-0.03 0,-0.01 -0.01,-0.02 0,-0.01 0,-0.02 -0.01,-0.01 0,-0.01 0,-0.02 0,-0.01 -0.01,-0.01 0,-0.01 0,-0.01 0,-0.01 0,-0.01 0,0 0,-0.01 0,-0.01 c 0,-0.18 0.14,-0.26 0.29,-0.26 0.12,0 0.29,0.07 0.36,0.27 0.01,0.02 0.13,0.49 0.19,0.74 l 0.22,0.9 c 0.06,0.22 0.12,0.43 0.17,0.66 0.04,0.17 0.12,0.46 0.13,0.5 0.15,0.31 0.68,1.21 1.63,1.21 0.45,0 0.53,-0.36 0.53,-0.69 0,-0.62 -0.48,-1.89 -0.64,-2.32 -0.09,-0.23 -0.1,-0.35 -0.1,-0.46 0,-0.47 0.35,-0.81 0.82,-0.81 0.93,0 1.3,1.45 1.3,1.53 0,0.1 -0.09,0.1 -0.12,0.1 -0.1,0 -0.1,-0.03 -0.15,-0.18 -0.2,-0.68 -0.53,-1.24 -1.02,-1.24 -0.16,0 -0.23,0.1 -0.23,0.33 0,0.25 0.08,0.49 0.17,0.71 0.19,0.53 0.61,1.62 0.61,2.19 0,0.67 -0.42,1.06 -1.14,1.06 -0.9,0 -1.39,-0.63 -1.56,-0.86 -0.05,0.56 -0.46,0.86 -0.91,0.86 -0.46,0 -0.65,-0.38 -0.75,-0.56 -0.16,-0.34 -0.3,-0.93 -0.3,-0.97 0,-0.1 0.1,-0.1 0.12,-0.1 0.1,0 0.11,0.01 0.17,0.23 0.17,0.71 0.37,1.18 0.73,1.18 0.19,0 0.3,-0.12 0.3,-0.45 0,-0.21 -0.03,-0.32 -0.16,-0.84 z"
   inkscape:connector-curvature="0"
   style="fill:#000000;stroke-width:0" />
<polygon
   id="polygon3344"
   points="238.35,714.59 238.35,714.19 239.32,714.19 239.32,705.03 238.35,705.03 238.35,704.64 239.71,704.64 239.71,714.59 "
   style="fill:#000000;stroke-width:0" />
</g>  <g
     id="g3703"
     transform="matrix(1.2003539,0,0,-1.2003539,-258.57331,1017.4545)"
     xml:space="preserve"
     stroke-miterlimit="10.433"
     font-style="normal"
     font-variant="normal"
     font-weight="normal"
     font-stretch="normal"
     font-size-adjust="none"
     letter-spacing="normal"
     word-spacing="normal"
     ns0:text="$\\{ \\Lambda_j\\}$"
     ns0:preamble=""
     style="font-style:normal;font-variant:normal;font-weight:normal;font-stretch:normal;letter-spacing:normal;word-spacing:normal;text-anchor:start;fill:none;stroke:#000000;stroke-linecap:butt;stroke-linejoin:miter;stroke-miterlimit:10.43299961;stroke-opacity:1;stroke-dasharray:none;stroke-dashoffset:0">
<path
   style="fill:#000000;stroke-width:0"
   inkscape:connector-curvature="0"
   d="m 226.25,713.27 0,0.03 0.01,0.04 0,0.04 0.01,0.04 0,0.05 0.01,0.04 0.02,0.04 0.01,0.05 0.02,0.04 0.02,0.04 0.02,0.05 0.02,0.04 0.03,0.05 0.03,0.04 0.03,0.04 0.04,0.04 0.04,0.04 0.04,0.04 0.05,0.04 0.05,0.04 0.05,0.03 0.06,0.03 0.06,0.03 0.06,0.03 0.07,0.03 0.07,0.03 0.08,0.02 0.08,0.02 0.04,0.01 0.04,0.01 0.05,0 0.04,0.01 0.05,0.01 0.05,0 0.05,0.01 0.05,0 c 0.05,0.01 0.09,0.05 0.09,0.11 0,0.11 -0.08,0.11 -0.19,0.11 -1,0 -1.9,-0.51 -1.91,-1.25 v -2.26 c 0,-0.39 0,-0.71 -0.4,-1.04 -0.35,-0.29 -0.73,-0.31 -0.95,-0.32 -0.05,-0.01 -0.09,-0.05 -0.09,-0.11 0,-0.1 0.06,-0.1 0.16,-0.11 0.66,-0.04 1.14,-0.39 1.24,-0.88 0.04,-0.11 0.04,-0.13 0.04,-0.49 v -1.97 c 0,-0.42 0,-0.74 0.47,-1.12 0.39,-0.29 1.05,-0.4 1.44,-0.4 0.11,0 0.19,0 0.19,0.11 0,0.1 -0.06,0.1 -0.16,0.11 -0.63,0.04 -1.12,0.35 -1.25,0.86 -0.03,0.09 -0.03,0.11 -0.03,0.47 v 2.09 c 0,0.46 -0.08,0.63 -0.4,0.94 -0.2,0.21 -0.49,0.31 -0.77,0.39 0.81,0.23 1.17,0.69 1.17,1.27 z"
   id="path3705" />
<path
   style="fill:#000000;stroke-width:0"
   inkscape:connector-curvature="0"
   d="m 232.1,714.04 0,0.01 0,0.01 -0.01,0.01 0,0.01 0,0 -0.01,0.01 0,0.02 -0.01,0.01 0,0.01 -0.01,0.01 0,0.01 -0.01,0.01 -0.01,0.01 0,0.01 -0.01,0.01 -0.01,0.01 0,0.01 -0.01,0 0,0.01 -0.01,0 -0.01,0.01 -0.01,0 0,0 -0.01,0.01 -0.01,0 -0.01,0 0,0 -0.01,0.01 -0.01,0 -0.01,0 -0.01,0 -0.01,0 -0.01,0 -0.01,0 -0.01,0 c -0.16,0 -0.18,-0.04 -0.23,-0.21 l -1.91,-5.92 c -0.1,-0.3 -0.3,-0.69 -1,-0.69 v -0.3 c 0.33,0.02 0.84,0.03 0.93,0.03 0.29,0 0.82,-0.02 1.13,-0.03 v 0.3 c -0.54,0.01 -0.77,0.28 -0.77,0.52 0,0.05 0,0.08 0.05,0.22 l 1.49,4.64 1.58,-4.9 c 0.05,-0.14 0.05,-0.16 0.05,-0.18 0,-0.3 -0.59,-0.3 -0.85,-0.3 v -0.3 c 0.35,0.03 1.06,0.03 1.44,0.03 0.38,0 0.83,-0.02 1.22,-0.03 v 0.3 c -0.76,0 -0.79,0.06 -0.9,0.43 z"
   id="path3707" />
<path
   style="fill:#000000;stroke-width:0"
   inkscape:connector-curvature="0"
   d="m 238.39,709.98 0,0.01 0,0.01 0,0.01 -0.01,0.01 0,0.01 0,0.02 0,0.01 -0.01,0.01 0,0.01 -0.01,0.01 0,0.01 -0.01,0.01 -0.01,0.01 0,0.01 -0.01,0.01 -0.01,0.01 -0.01,0.01 -0.01,0.01 -0.01,0.01 -0.01,0.01 -0.01,0.01 -0.01,0 -0.01,0.01 -0.02,0.01 -0.01,0 -0.01,0.01 -0.02,0 -0.01,0 -0.02,0.01 -0.01,0 -0.02,0 -0.02,0 c -0.2,0 -0.39,-0.19 -0.39,-0.38 0,-0.11 0.08,-0.27 0.28,-0.27 0.19,0 0.39,0.19 0.39,0.39 z"
   id="path3709" />
<path
   style="fill:#000000;stroke-width:0"
   inkscape:connector-curvature="0"
   d="m 236.91,705.29 -0.01,-0.04 -0.01,-0.05 -0.02,-0.04 -0.01,-0.05 -0.02,-0.04 -0.02,-0.04 -0.02,-0.04 -0.02,-0.04 -0.02,-0.04 -0.02,-0.04 -0.03,-0.03 -0.02,-0.04 -0.03,-0.04 -0.03,-0.03 -0.03,-0.03 -0.03,-0.03 -0.03,-0.03 -0.03,-0.03 -0.03,-0.03 -0.03,-0.02 -0.03,-0.02 -0.04,-0.02 -0.03,-0.02 -0.04,-0.02 -0.03,-0.02 -0.04,-0.01 -0.04,-0.01 -0.03,-0.01 -0.04,-0.01 -0.04,-0.01 -0.04,0 -0.04,0 c -0.09,0 -0.17,0.01 -0.25,0.04 0.19,0.08 0.24,0.25 0.24,0.35 0,0.17 -0.13,0.26 -0.27,0.26 -0.22,0 -0.4,-0.19 -0.4,-0.41 0,-0.26 0.27,-0.44 0.69,-0.44 0.42,0 1.23,0.25 1.45,1.1 l 0.63,2.49 c 0.02,0.08 0.03,0.14 0.03,0.24 0,0.39 -0.33,0.66 -0.74,0.66 -0.78,0 -1.22,-0.97 -1.22,-1.07 0,-0.09 0.09,-0.09 0.12,-0.09 0.08,0 0.09,0.02 0.14,0.13 0.17,0.4 0.53,0.83 0.94,0.83 0.17,0 0.23,-0.11 0.23,-0.34 0,-0.07 -0.01,-0.17 -0.02,-0.21 z"
   id="path3711" />
<path
   style="fill:#000000;stroke-width:0"
   inkscape:connector-curvature="0"
   d="m 241.68,705.96 0,-0.04 0,-0.04 0,-0.04 -0.01,-0.04 -0.01,-0.04 -0.01,-0.04 -0.01,-0.05 -0.01,-0.04 -0.02,-0.04 -0.02,-0.05 -0.02,-0.04 -0.03,-0.05 -0.02,-0.04 -0.03,-0.04 -0.04,-0.04 -0.03,-0.05 -0.04,-0.04 -0.04,-0.03 -0.05,-0.04 -0.05,-0.04 -0.05,-0.03 -0.06,-0.04 -0.06,-0.03 -0.06,-0.03 -0.07,-0.03 -0.08,-0.02 -0.07,-0.02 -0.08,-0.02 -0.05,-0.01 -0.04,-0.01 -0.04,-0.01 -0.05,0 -0.05,-0.01 -0.04,-0.01 -0.05,0 -0.05,0 c -0.05,-0.01 -0.09,-0.05 -0.09,-0.11 0,-0.11 0.11,-0.11 0.2,-0.11 0.96,0 1.89,0.48 1.9,1.24 v 2.27 c 0,0.39 0,0.71 0.4,1.03 0.35,0.29 0.73,0.31 0.95,0.32 0.05,0.01 0.09,0.05 0.09,0.11 0,0.1 -0.06,0.1 -0.16,0.11 -0.66,0.04 -1.14,0.4 -1.25,0.89 -0.03,0.11 -0.03,0.13 -0.03,0.49 v 1.97 c 0,0.41 0,0.73 -0.48,1.11 -0.4,0.31 -1.08,0.41 -1.42,0.41 -0.09,0 -0.2,0 -0.2,-0.11 0,-0.1 0.06,-0.1 0.16,-0.11 0.63,-0.04 1.11,-0.36 1.24,-0.86 0.03,-0.1 0.03,-0.11 0.03,-0.47 v -2.09 c 0,-0.46 0.08,-0.63 0.4,-0.95 0.21,-0.21 0.5,-0.31 0.78,-0.39 -0.82,-0.23 -1.18,-0.68 -1.18,-1.26 z"
   id="path3713" />
</g>  <g
     style="font-style:normal;font-variant:normal;font-weight:normal;font-stretch:normal;letter-spacing:normal;word-spacing:normal;text-anchor:start;fill:none;stroke:#000000;stroke-linecap:butt;stroke-linejoin:miter;stroke-miterlimit:10.43299961;stroke-opacity:1;stroke-dasharray:none;stroke-dashoffset:0"
     ns0:preamble=""
     ns0:text="$\\mathbf{A}^{*}$"
     word-spacing="normal"
     letter-spacing="normal"
     font-size-adjust="none"
     font-stretch="normal"
     font-weight="normal"
     font-variant="normal"
     font-style="normal"
     stroke-miterlimit="10.433"
     xml:space="preserve"
     transform="matrix(1.0510759,0,0,-1.0510759,-201.04283,971.01394)"
     id="g4076">
<path
   id="path4078"
   d="m 228.16,713.81 -0.01,0.01 0,0.02 -0.01,0.01 0,0.01 -0.01,0.02 -0.01,0.02 -0.02,0.02 -0.01,0.01 -0.01,0.02 -0.01,0.01 -0.01,0.02 -0.01,0.01 -0.01,0.01 -0.01,0.01 -0.01,0.01 -0.02,0.01 -0.01,0 -0.01,0.01 -0.01,0.01 -0.01,0 -0.02,0 -0.01,0.01 -0.01,0 -0.02,0 -0.01,0.01 -0.01,0 -0.02,0 -0.01,0 -0.02,0 -0.01,0 -0.03,0 -0.03,0 c -0.28,0 -0.32,-0.08 -0.39,-0.26 l -2.47,-5.99 c -0.06,-0.15 -0.09,-0.23 -0.85,-0.23 h -0.21 v -0.46 c 0.38,0.01 0.86,0.03 1.17,0.03 0.39,0 0.94,0 1.31,-0.03 v 0.46 c -0.02,0 -0.88,0 -0.88,0.13 0,0.01 0.03,0.11 0.04,0.12 l 0.49,1.21 0.2,0.46 1.14,2.77 1.14,-2.77 h -2.28 l -0.2,-0.46 h 2.68 l 0.59,-1.46 h -0.94 v -0.46 c 0.38,0.03 1.32,0.03 1.75,0.03 0.4,0 1.28,0 1.63,-0.03 v 0.46 h -0.97 z"
   inkscape:connector-curvature="0"
   style="fill:#000000;stroke-width:0" />
<path
   id="path4080"
   d="m 234.34,712.47 0.06,0.02 0.05,0.03 0.05,0.02 0.04,0.02 0.05,0.02 0.04,0.02 0.05,0.02 0.04,0.01 0.04,0.02 0.03,0.02 0.04,0.01 0.04,0.02 0.03,0.01 0.03,0.01 0.03,0.02 0.03,0.01 0.03,0.01 0.03,0.01 0.03,0.01 0.02,0.02 0.03,0.01 0.02,0.01 0.02,0.01 0.03,0 0.02,0.01 0.02,0.01 0.04,0.02 0.03,0.02 0.04,0.01 c 0.13,0.06 0.19,0.09 0.19,0.22 0,0.12 -0.09,0.22 -0.22,0.22 -0.04,0 -0.06,0 -0.14,-0.06 l -0.95,-0.63 0.11,1.02 c 0.01,0.13 0,0.3 -0.21,0.3 -0.09,0 -0.22,-0.05 -0.22,-0.2 0,-0.07 0.03,-0.28 0.04,-0.35 0.01,-0.11 0.06,-0.62 0.07,-0.77 l -0.94,0.63 c -0.07,0.04 -0.09,0.06 -0.15,0.06 -0.13,0 -0.22,-0.1 -0.22,-0.22 0,-0.14 0.09,-0.18 0.15,-0.2 l 1.05,-0.44 c -0.57,-0.25 -0.83,-0.35 -1,-0.43 -0.13,-0.06 -0.2,-0.09 -0.2,-0.22 0,-0.12 0.09,-0.22 0.22,-0.22 0.05,0 0.06,0 0.15,0.06 l 0.94,0.63 -0.11,-1.12 c 0,-0.15 0.13,-0.2 0.22,-0.2 0.08,0 0.21,0.05 0.21,0.2 0,0.07 -0.02,0.28 -0.03,0.35 -0.02,0.11 -0.06,0.62 -0.08,0.77 l 0.84,-0.55 c 0.18,-0.14 0.19,-0.14 0.25,-0.14 0.13,0 0.22,0.1 0.22,0.22 0,0.14 -0.08,0.18 -0.14,0.2 z"
   inkscape:connector-curvature="0"
   style="fill:#000000;stroke-width:0" />
</g>  <g
     id="content"
     transform="matrix(1.1181011,0,0,-1.1181011,-277.39243,1037.1988)"
     xml:space="preserve"
     stroke-miterlimit="10.433"
     font-style="normal"
     font-variant="normal"
     font-weight="normal"
     font-stretch="normal"
     font-size-adjust="none"
     letter-spacing="normal"
     word-spacing="normal"
     ns0:text="$\\mathbf{A}_q$"
     ns0:preamble=""
     style="font-style:normal;font-variant:normal;font-weight:normal;font-stretch:normal;letter-spacing:normal;word-spacing:normal;text-anchor:start;fill:none;stroke:#000000;stroke-linecap:butt;stroke-linejoin:miter;stroke-miterlimit:10.43299961;stroke-opacity:1;stroke-dasharray:none;stroke-dashoffset:0">
<path
   style="fill:#000000;stroke-width:0"
   inkscape:connector-curvature="0"
   d="m 228.16,713.81 -0.01,0.01 0,0.02 -0.01,0.01 0,0.01 -0.01,0.02 -0.01,0.02 -0.02,0.02 -0.01,0.01 -0.01,0.02 -0.01,0.01 -0.01,0.02 -0.01,0.01 -0.01,0.01 -0.01,0.01 -0.01,0.01 -0.02,0.01 -0.01,0 -0.01,0.01 -0.01,0.01 -0.01,0 -0.02,0 -0.01,0.01 -0.01,0 -0.02,0 -0.01,0.01 -0.01,0 -0.02,0 -0.01,0 -0.02,0 -0.01,0 -0.03,0 -0.03,0 c -0.28,0 -0.32,-0.08 -0.39,-0.26 l -2.47,-5.99 c -0.06,-0.15 -0.09,-0.23 -0.85,-0.23 h -0.21 v -0.46 c 0.38,0.01 0.86,0.03 1.17,0.03 0.39,0 0.94,0 1.31,-0.03 v 0.46 c -0.02,0 -0.88,0 -0.88,0.13 0,0.01 0.03,0.11 0.04,0.12 l 0.49,1.21 0.2,0.46 1.14,2.77 1.14,-2.77 h -2.28 l -0.2,-0.46 h 2.68 l 0.59,-1.46 h -0.94 v -0.46 c 0.38,0.03 1.32,0.03 1.75,0.03 0.4,0 1.28,0 1.63,-0.03 v 0.46 h -0.97 z"
   id="path4444" />
<path
   style="fill:#000000;stroke-width:0"
   inkscape:connector-curvature="0"
   d="m 235.64,708.5 0,0 0,0.01 0,0 0,0.01 0.01,0.01 0,0 0,0.01 0,0.01 0,0 0,0.01 0,0.01 0,0 0,0.01 0,0.01 0,0 0,0.01 c 0,0.04 -0.02,0.1 -0.09,0.1 -0.07,0 -0.36,-0.24 -0.5,-0.46 -0.07,0.14 -0.3,0.46 -0.74,0.46 v -0.2 c 0.48,0 0.61,-0.53 0.61,-0.6 0,-0.04 -0.01,-0.08 -0.02,-0.11 l -0.32,-1.28 c -0.04,-0.12 -0.04,-0.13 -0.13,-0.25 -0.27,-0.32 -0.6,-0.5 -0.87,-0.5 -0.26,0 -0.51,0.18 -0.51,0.67 0,0.37 0.21,1.13 0.37,1.41 0.31,0.56 0.67,0.66 0.87,0.66 v 0.2 c -0.9,0 -1.8,-0.98 -1.8,-1.98 0,-0.68 0.45,-1.16 1.05,-1.16 0.4,0 0.72,0.25 0.88,0.38 -0.01,-0.02 -0.22,-0.89 -0.25,-1.01 -0.1,-0.38 -0.11,-0.39 -0.54,-0.4 -0.08,0 -0.18,0 -0.18,-0.15 0,-0.04 0.03,-0.1 0.1,-0.1 0.23,0 0.49,0.03 0.73,0.03 0.23,0 0.53,-0.03 0.74,-0.03 0.07,0 0.14,0.02 0.14,0.15 0,0.1 -0.09,0.1 -0.18,0.1 -0.15,0 -0.34,0 -0.34,0.09 0,0.02 0,0.03 0.04,0.15 z"
   id="path4446" />
</g>  <g
     style="font-style:normal;font-variant:normal;font-weight:normal;font-stretch:normal;letter-spacing:normal;word-spacing:normal;text-anchor:start;fill:none;stroke:#000000;stroke-linecap:butt;stroke-linejoin:miter;stroke-miterlimit:10.43299961;stroke-opacity:1;stroke-dasharray:none;stroke-dashoffset:0"
     ns0:preamble=""
     ns0:text="$\\{t^{(k)}_q\\}$"
     word-spacing="normal"
     letter-spacing="normal"
     font-size-adjust="none"
     font-stretch="normal"
     font-weight="normal"
     font-variant="normal"
     font-style="normal"
     stroke-miterlimit="10.433"
     xml:space="preserve"
     transform="matrix(1.0078076,0,0,-1.0078076,-148.9244,965.51749)"
     id="g5578">
<path
   id="path5580"
   d="m 226.25,712.82 0,0.04 0.01,0.04 0,0.04 0.01,0.04 0,0.04 0.01,0.05 0.02,0.04 0.01,0.04 0.02,0.05 0.02,0.04 0.02,0.05 0.02,0.04 0.03,0.04 0.03,0.05 0.03,0.04 0.04,0.04 0.04,0.04 0.04,0.04 0.05,0.04 0.05,0.03 0.05,0.04 0.06,0.03 0.06,0.03 0.06,0.03 0.07,0.03 0.07,0.02 0.08,0.03 0.08,0.02 0.04,0.01 0.04,0 0.05,0.01 0.04,0.01 0.05,0 0.05,0.01 0.05,0 0.05,0.01 c 0.05,0.01 0.09,0.05 0.09,0.11 0,0.11 -0.08,0.11 -0.19,0.11 -1,0 -1.9,-0.51 -1.91,-1.25 v -2.27 c 0,-0.39 0,-0.7 -0.4,-1.03 -0.35,-0.29 -0.73,-0.31 -0.95,-0.32 -0.05,-0.01 -0.09,-0.05 -0.09,-0.11 0,-0.1 0.06,-0.1 0.16,-0.11 0.66,-0.04 1.14,-0.4 1.24,-0.89 0.04,-0.1 0.04,-0.13 0.04,-0.48 v -1.97 c 0,-0.42 0,-0.74 0.47,-1.12 0.39,-0.3 1.05,-0.41 1.44,-0.41 0.11,0 0.19,0 0.19,0.11 0,0.1 -0.06,0.1 -0.16,0.11 -0.63,0.04 -1.12,0.36 -1.25,0.87 -0.03,0.09 -0.03,0.11 -0.03,0.47 v 2.09 c 0,0.45 -0.08,0.62 -0.4,0.94 -0.2,0.21 -0.49,0.31 -0.77,0.39 0.81,0.23 1.17,0.69 1.17,1.26 z"
   inkscape:connector-curvature="0"
   style="fill:#000000;stroke-width:0" />
<path
   id="path5582"
   d="m 230.47,710.66 h 0.93 c 0.2,0 0.3,0 0.3,0.2 0,0.11 -0.1,0.11 -0.28,0.11 h -0.87 c 0.35,1.42 0.41,1.61 0.41,1.67 0,0.17 -0.12,0.27 -0.29,0.27 -0.03,0 -0.31,-0.01 -0.4,-0.36 l -0.39,-1.58 h -0.94 c -0.2,0 -0.3,0 -0.3,-0.19 0,-0.12 0.08,-0.12 0.28,-0.12 h 0.88 c -0.72,-2.82 -0.76,-2.99 -0.76,-3.17 0,-0.54 0.38,-0.92 0.92,-0.92 1.02,0 1.58,1.46 1.58,1.53 0,0.11 -0.08,0.11 -0.12,0.11 -0.09,0 -0.1,-0.04 -0.15,-0.14 -0.42,-1.04 -0.95,-1.28 -1.29,-1.28 -0.21,0 -0.31,0.13 -0.31,0.46 0,0.24 0.02,0.31 0.06,0.48 z"
   inkscape:connector-curvature="0"
   style="fill:#000000;stroke-width:0" />
<path
   id="path5584"
   d="m 234.48,717.07 -0.12,-0.09 -0.11,-0.09 -0.11,-0.09 -0.11,-0.1 -0.1,-0.1 -0.09,-0.1 -0.09,-0.11 -0.09,-0.1 -0.08,-0.11 -0.07,-0.11 -0.07,-0.11 -0.07,-0.11 -0.06,-0.12 -0.06,-0.11 -0.05,-0.12 -0.05,-0.11 -0.04,-0.12 -0.05,-0.12 -0.03,-0.11 -0.04,-0.12 -0.03,-0.11 -0.03,-0.12 -0.02,-0.11 -0.02,-0.12 -0.02,-0.11 -0.02,-0.11 -0.01,-0.11 -0.01,-0.11 -0.01,-0.11 0,-0.1 -0.01,-0.11 0,-0.1 c 0,-0.98 0.29,-2.5 1.67,-3.47 0.06,0 0.14,0 0.14,0.08 0,0.04 -0.02,0.06 -0.07,0.1 -0.92,0.84 -1.26,2.02 -1.26,3.28 0,1.88 0.71,2.8 1.28,3.32 0.03,0.02 0.05,0.04 0.05,0.08 0,0.08 -0.08,0.08 -0.14,0.08 z"
   inkscape:connector-curvature="0"
   style="fill:#000000;stroke-width:0" />
<path
   id="path5586"
   d="m 237.3,716.47 0,0 0,0.01 0.01,0 0,0 0,0 0,0 0,0 0,0 0,0.01 0,0 0,0 0,0.01 0,0 0,0 0,0.01 0.01,0 0,0.01 0,0 0,0.01 0,0.01 0,0.01 0,0 0.01,0 0,0.01 0,0 0,0.01 0,0 0,0 0,0 0,0.01 0,0 0,0 0,0 0,0 0,0 0,0 0,0 0,0 0,0 0,0.01 c 0,0.03 -0.03,0.09 -0.11,0.09 -0.14,0 -0.72,-0.05 -0.89,-0.07 -0.06,0 -0.15,-0.01 -0.15,-0.16 0,-0.09 0.09,-0.09 0.18,-0.09 0.33,0 0.33,-0.05 0.33,-0.11 0,-0.05 -0.01,-0.09 -0.03,-0.15 l -0.98,-3.94 c -0.03,-0.12 -0.03,-0.14 -0.03,-0.15 0,-0.1 0.08,-0.22 0.23,-0.22 0.19,0 0.28,0.14 0.32,0.29 0.02,0.03 0.32,1.25 0.34,1.35 0.5,-0.05 0.9,-0.21 0.9,-0.57 0,-0.04 0,-0.07 -0.02,-0.14 -0.03,-0.11 -0.03,-0.14 -0.03,-0.22 0,-0.49 0.41,-0.71 0.74,-0.71 0.68,0 0.89,1.05 0.89,1.06 0,0.09 -0.09,0.09 -0.11,0.09 -0.1,0 -0.11,-0.03 -0.14,-0.16 -0.09,-0.3 -0.28,-0.8 -0.62,-0.8 -0.19,0 -0.24,0.18 -0.24,0.36 0,0.12 0,0.14 0.04,0.32 0.01,0.02 0.04,0.14 0.04,0.21 0,0.62 -0.84,0.72 -1.13,0.74 0.2,0.12 0.46,0.35 0.58,0.46 0.35,0.33 0.7,0.66 1.09,0.66 0.08,0 0.17,-0.02 0.23,-0.09 -0.3,-0.05 -0.36,-0.29 -0.36,-0.39 0,-0.15 0.12,-0.26 0.28,-0.26 0.18,0 0.39,0.16 0.39,0.45 0,0.23 -0.16,0.48 -0.53,0.48 -0.4,0 -0.76,-0.28 -1.12,-0.61 -0.29,-0.28 -0.52,-0.49 -0.81,-0.61 z"
   inkscape:connector-curvature="0"
   style="fill:#000000;stroke-width:0" />
<path
   id="path5588"
   d="m 240.15,717.07 0,0 0,0 -0.01,0 0,0 -0.01,0 -0.01,0 0,0 -0.01,0 0,0 -0.01,0 0,0 -0.01,0 0,0 -0.01,0 0,-0.01 -0.01,0 0,0 -0.01,0 0,-0.01 -0.01,0 0,0 -0.01,0 0,-0.01 0,0 0,0 0,-0.01 -0.01,0 0,0 0,0 0,-0.01 0,0 0,0 0,0 0,-0.01 0,0 -0.01,0 0,-0.01 0,0 0,0 0,-0.01 0,0 c 0,-0.04 0.02,-0.06 0.07,-0.11 0.59,-0.54 1.26,-1.48 1.26,-3.28 0,-1.45 -0.45,-2.55 -1.2,-3.23 -0.12,-0.12 -0.13,-0.13 -0.13,-0.16 0,-0.04 0.02,-0.08 0.09,-0.08 0.09,0 0.75,0.46 1.21,1.32 0.3,0.58 0.51,1.33 0.51,2.14 0,0.99 -0.3,2.51 -1.68,3.48 z"
   inkscape:connector-curvature="0"
   style="fill:#000000;stroke-width:0" />
<path
   id="path5590"
   d="m 235.56,708.38 0,0.01 0,0 0,0.01 0,0.01 0,0 0,0.01 0,0 0.01,0.01 0,0.01 0,0.01 0,0 0,0.01 0,0.01 0,0 0,0.01 0,0.01 c 0,0.04 -0.03,0.09 -0.09,0.09 -0.07,0 -0.36,-0.23 -0.5,-0.45 -0.07,0.13 -0.3,0.45 -0.75,0.45 v -0.19 c 0.49,0 0.62,-0.54 0.62,-0.61 0,-0.03 -0.01,-0.07 -0.02,-0.1 l -0.33,-1.29 c -0.03,-0.11 -0.03,-0.13 -0.12,-0.24 -0.27,-0.32 -0.6,-0.51 -0.87,-0.51 -0.26,0 -0.51,0.18 -0.51,0.68 0,0.36 0.2,1.13 0.36,1.41 0.32,0.55 0.68,0.66 0.87,0.66 v 0.19 c -0.89,0 -1.79,-0.98 -1.79,-1.98 0,-0.67 0.45,-1.15 1.05,-1.15 0.39,0 0.72,0.25 0.88,0.38 -0.01,-0.02 -0.23,-0.9 -0.26,-1.01 -0.09,-0.39 -0.1,-0.4 -0.53,-0.4 -0.09,0 -0.18,0 -0.18,-0.15 0,-0.05 0.03,-0.1 0.1,-0.1 0.23,0 0.49,0.03 0.73,0.03 0.23,0 0.53,-0.03 0.74,-0.03 0.06,0 0.14,0.02 0.14,0.15 0,0.1 -0.1,0.1 -0.18,0.1 -0.15,0 -0.34,0 -0.34,0.08 0,0.02 0,0.04 0.03,0.16 z"
   inkscape:connector-curvature="0"
   style="fill:#000000;stroke-width:0" />
<path
   id="path5592"
   d="m 245.29,705.52 0,-0.04 0,-0.04 0,-0.04 -0.01,-0.04 -0.01,-0.04 -0.01,-0.05 -0.01,-0.04 -0.01,-0.04 -0.02,-0.05 -0.02,-0.04 -0.02,-0.05 -0.03,-0.04 -0.02,-0.04 -0.03,-0.05 -0.04,-0.04 -0.03,-0.04 -0.04,-0.04 -0.04,-0.04 -0.05,-0.04 -0.05,-0.03 -0.05,-0.04 -0.06,-0.03 -0.06,-0.03 -0.06,-0.03 -0.07,-0.03 -0.08,-0.02 -0.07,-0.03 -0.08,-0.02 -0.05,-0.01 -0.04,0 -0.04,-0.01 -0.05,-0.01 -0.05,0 -0.04,-0.01 -0.05,0 -0.05,-0.01 c -0.05,-0.01 -0.09,-0.05 -0.09,-0.11 0,-0.11 0.11,-0.11 0.2,-0.11 0.96,0 1.89,0.49 1.9,1.25 v 2.27 c 0,0.38 0,0.7 0.4,1.03 0.35,0.29 0.73,0.31 0.95,0.32 0.05,0.01 0.09,0.05 0.09,0.11 0,0.1 -0.06,0.1 -0.16,0.11 -0.66,0.04 -1.14,0.4 -1.25,0.88 -0.03,0.12 -0.03,0.13 -0.03,0.49 v 1.97 c 0,0.42 0,0.74 -0.48,1.12 -0.4,0.31 -1.08,0.41 -1.42,0.41 -0.09,0 -0.2,0 -0.2,-0.11 0,-0.1 0.06,-0.1 0.16,-0.11 0.63,-0.04 1.11,-0.36 1.24,-0.87 0.03,-0.09 0.03,-0.11 0.03,-0.47 v -2.09 c 0,-0.45 0.08,-0.62 0.4,-0.94 0.21,-0.21 0.5,-0.31 0.78,-0.39 -0.82,-0.23 -1.18,-0.69 -1.18,-1.26 z"
   inkscape:connector-curvature="0"
   style="fill:#000000;stroke-width:0" />
</g></svg>
