<?xml version="1.0" encoding="UTF-8" standalone="no"?>
<!-- Created with Inkscape (http://www.inkscape.org/) -->

<svg
   xmlns:dc="http://purl.org/dc/elements/1.1/"
   xmlns:cc="http://creativecommons.org/ns#"
   xmlns:rdf="http://www.w3.org/1999/02/22-rdf-syntax-ns#"
   xmlns:svg="http://www.w3.org/2000/svg"
   xmlns="http://www.w3.org/2000/svg"
   xmlns:sodipodi="http://sodipodi.sourceforge.net/DTD/sodipodi-0.dtd"
   xmlns:inkscape="http://www.inkscape.org/namespaces/inkscape"
   id="svg2"
   version="1.1"
   inkscape:version="0.91 r13725"
   width="1345.8075"
   height="938.32625"
   xml:space="preserve"
   sodipodi:docname="CoverPageUpright.svg"><metadata
     id="metadata8"><rdf:RDF><cc:Work
         rdf:about=""><dc:format>image/svg+xml</dc:format><dc:type
           rdf:resource="http://purl.org/dc/dcmitype/StillImage" /><dc:title></dc:title></cc:Work></rdf:RDF></metadata><defs
     id="defs6"><clipPath
       clipPathUnits="userSpaceOnUse"
       id="clipPath38"><path
         d="m 6.8268,6.8268 737.008,0 0,1062.993 -737.008,0 0,-1062.993 z"
         id="path40" /></clipPath></defs><sodipodi:namedview
     pagecolor="#ffffff"
     bordercolor="#666666"
     borderopacity="1"
     objecttolerance="10"
     gridtolerance="10"
     guidetolerance="10"
     inkscape:pageopacity="0"
     inkscape:pageshadow="2"
     inkscape:window-width="1855"
     inkscape:window-height="1056"
     id="namedview4"
     showgrid="false"
     showguides="true"
     inkscape:guide-bbox="true"
     inkscape:document-units="in"
     inkscape:zoom="0.93303299"
     inkscape:cx="907.69134"
     inkscape:cy="563.70959"
     inkscape:window-x="65"
     inkscape:window-y="24"
     inkscape:window-maximized="1"
     inkscape:current-layer="g10"><sodipodi:guide
       orientation="1,0"
       position="840.74994,309.00566"
       id="guide3146" /><sodipodi:guide
       orientation="1,0"
       position="1319.4612,816.70831"
       id="guide3148" /></sodipodi:namedview><g
     id="g10"
     inkscape:groupmode="layer"
     inkscape:label="CoverPage"
     transform="matrix(0,1.25,1.25,0,0,0)"><text
       xml:space="preserve"
       style="font-style:normal;font-variant:normal;font-weight:normal;font-stretch:normal;font-size:38.40000153px;line-height:125%;font-family:NaJeyah;-inkscape-font-specification:NaJeyah;text-align:start;letter-spacing:0px;word-spacing:0px;writing-mode:lr-tb;text-anchor:start;fill:#d91920;fill-opacity:1;stroke:none"
       x="672"
       y="209.8609"
       id="text3144"
       sodipodi:linespacing="125%"
       transform="matrix(0,1,1,0,0,0)"><tspan
         sodipodi:role="line"
         x="672"
         y="209.8609"
         style="font-style:normal;font-variant:normal;font-weight:normal;font-stretch:normal;font-size:21.60000038px;font-family:'Futura ICG';-inkscape-font-specification:'Futura ICG';fill:#d91920;fill-opacity:1"
         id="tspan3152">Automatic Assessment of</tspan><tspan
         sodipodi:role="line"
         x="672"
         y="236.8609"
         style="font-style:normal;font-variant:normal;font-weight:normal;font-stretch:normal;font-size:21.60000038px;font-family:'Futura ICG';-inkscape-font-specification:'Futura ICG';fill:#d91920;fill-opacity:1"
         id="tspan3503">Singing Voice Pronunciation:</tspan><tspan
         sodipodi:role="line"
         x="672"
         y="263.8609"
         style="font-style:normal;font-variant:normal;font-weight:normal;font-stretch:normal;font-size:21.60000038px;font-family:'Futura ICG';-inkscape-font-specification:'Futura ICG';fill:#d91920;fill-opacity:1"
         id="tspan3505">A Case Study with Jingju Music</tspan><tspan
         sodipodi:role="line"
         x="672"
         y="290.8609"
         style="font-style:normal;font-variant:normal;font-weight:normal;font-stretch:normal;font-size:21.60000038px;font-family:'Futura ICG';-inkscape-font-specification:'Futura ICG';fill:#d91920;fill-opacity:1"
         id="tspan3148" /></text>
<path
       d="m 6.8268,460.37 737.008,0 0,155.906 -737.008,0 0,-155.906 z"
       style="fill:#d91920;fill-opacity:1;fill-rule:nonzero;stroke:none"
       id="path12" /><g
       id="g14"
       transform="translate(540.825,1069.82)"><path
         d="M 0,0 0,-396.852"
         style="fill:none;stroke:#989594;stroke-opacity:1;stroke-width:3.5;stroke-linecap:butt;stroke-linejoin:miter;stroke-miterlimit:4;stroke-dasharray:none"
         id="path16" /></g><text
       transform="matrix(-1,0,0,1,619.11,604.937)"
       id="text18"><tspan
         style="fill:#989594;fill-opacity:1;fill-rule:nonzero;stroke:none;font-family:Futura ND;font-variant:normal;font-weight:normal;font-stretch:normal;font-size:32;writing-mode:lr;-inkscape-font-specification:Futura ND"
         x="0 23.36 48.8 75.52 92.48 110.368 141.28 178.016 209.376 231.6096 268.3456 294.5216 324.9536 345.9136 363.8016 395.2576 419.8016 443.4816"
         y="0"
         sodipodi:role="line"
         id="tspan20">TESI DOCTORAL UPF/</tspan></text>
<text
       transform="matrix(-1,0,0,1,150.016,604.937)"
       id="text22"><tspan
         style="font-variant:normal;font-weight:normal;font-stretch:normal;font-size:18px;font-family:'Futura ND';-inkscape-font-specification:'Futura ND';writing-mode:lr-tb;fill:#989594;fill-opacity:1;fill-rule:nonzero;stroke:none"
         x="0 15.606 29.752199"
         y="0"
         sodipodi:role="line"
         id="tspan24">2018</tspan></text>
<text
       transform="matrix(1,0,0,-1,90.4489,471.709)"
       id="text26"><tspan
         style="fill:#989594;fill-opacity:1;fill-rule:nonzero;stroke:none;font-family:Futura ND;font-variant:normal;font-weight:normal;font-stretch:normal;font-size:32;writing-mode:lr;-inkscape-font-specification:Futura ND"
         x="0 23.36 48.8 75.52 92.48 110.368 141.28 178.016 209.376 231.6096 268.3456 294.5216 324.9536 345.9136 363.8016 395.2576 419.8016 443.4816"
         y="0"
         sodipodi:role="line"
         id="tspan28">TESI DOCTORAL UPF/</tspan></text>
<text
       transform="matrix(1,0,0,-1,559.543,471.709)"
       id="text30"><tspan
         style="font-variant:normal;font-weight:normal;font-stretch:normal;font-size:18px;font-family:'Futura ND';-inkscape-font-specification:'Futura ND';writing-mode:lr-tb;fill:#989594;fill-opacity:1;fill-rule:nonzero;stroke:none"
         x="0 15.606 29.752199"
         y="0"
         sodipodi:role="line"
         id="tspan32">2018</tspan></text>
<g
       id="g34"><g
         id="g36"
         clip-path="url(#clipPath38)"><g
           id="g42"
           transform="translate(12.496,556.748)"><path
             d="M 0,0 -56.693,0"
             style="fill:none;stroke:#0c0a08;stroke-opacity:1;stroke-width:0.5;stroke-linecap:butt;stroke-linejoin:miter;stroke-miterlimit:4;stroke-dasharray:none"
             id="path44" /><g
             id="g46"
             transform="translate(782.362,0)"><path
               d="M 0,0 -56.693,0"
               style="fill:none;stroke:#0c0a08;stroke-opacity:1;stroke-width:0.5;stroke-linecap:butt;stroke-linejoin:miter;stroke-miterlimit:4;stroke-dasharray:none"
               id="path48" /><g
               id="g50"
               transform="translate(-782.362,-36.85)"><path
                 d="M 0,0 -56.693,0"
                 style="fill:none;stroke:#0c0a08;stroke-opacity:1;stroke-width:0.5;stroke-linecap:butt;stroke-linejoin:miter;stroke-miterlimit:4;stroke-dasharray:none"
                 id="path52" /><g
                 id="g54"
                 transform="translate(782.362,0)"><path
                   d="M 0,0 -56.693,0"
                   style="fill:none;stroke:#0c0a08;stroke-opacity:1;stroke-width:0.5;stroke-linecap:butt;stroke-linejoin:miter;stroke-miterlimit:4;stroke-dasharray:none"
                   id="path56" /></g></g></g></g></g></g><g
       id="g58"
       transform="translate(112.818,102.236)"><path
         d="M 0,0 0,-0.057 C 0,-0.804 -0.325,-1.07 -1.099,-1.07 l -6.266,0.025 c -0.239,0 -0.366,-0.05 -0.366,-0.314 0,-0.069 0.018,-0.227 0.044,-0.467 0.064,-0.548 0.154,-1.564 0.19,-2.777 l 0.003,-0.053 0.783,0 0,0.054 c 0,0.64 0.175,1.064 0.917,1.064 l 1.825,-0.023 c 3.023,0 3.608,-1.213 3.608,-2.097 0,-0.724 -0.75,-0.993 -1.379,-0.993 l -5.625,0.034 c -0.239,0 -0.366,-0.051 -0.366,-0.315 0,-0.068 0.018,-0.228 0.044,-0.468 0.064,-0.547 0.154,-1.447 0.19,-2.659 l 0.003,-0.054 0.783,0 0,0.056 c 0,0.641 0.175,1.065 0.917,1.065 l 3.795,-0.035 c 2.473,0 2.991,1.279 2.991,2.35 0,1.599 -1.043,2.516 -1.6,3.014 -0.156,0.138 -0.315,0.279 -0.315,0.328 0,0.025 0,0.1 0.117,0.1 l 1.536,0 c 0.229,0 0.262,0.153 0.262,0.244 0,0.07 -0.02,0.225 -0.053,0.458 -0.076,0.565 -0.154,1.512 -0.154,2.476 L 0.785,0 0,0"
         style="fill:#dd1731;fill-opacity:1;fill-rule:nonzero;stroke:none"
         id="path60" /></g><g
       id="g62"
       transform="translate(105.414,119.17)"><path
         d="m 0,0 0,-1.988 -1.285,0.165 c -1.758,0.245 -2.506,0.563 -2.506,1.066 0,0.202 0.102,0.326 0.27,0.326 0.112,0 0.168,-0.015 0.227,-0.032 0.068,-0.017 0.135,-0.038 0.274,-0.038 0.29,0 0.628,0.18 0.628,0.696 0,0.621 -0.479,0.9 -0.954,0.9 -0.781,0 -1.229,-0.561 -1.229,-1.541 0,-2.18 3.058,-2.768 4.575,-3.052 l 0,-1.757 0.784,-0.161 0,1.799 0.761,-0.117 c 0.512,-0.079 1.02,-0.157 1.538,-0.235 l 0.878,-0.134 c 5.059,-0.765 7.306,-1.153 7.306,-1.99 0,-0.094 -0.028,-0.116 -0.134,-0.116 -0.036,0 -0.08,0.011 -0.131,0.023 -0.073,0.023 -0.167,0.046 -0.285,0.046 -0.346,0 -0.59,-0.258 -0.59,-0.625 0,-0.55 0.396,-0.799 0.765,-0.799 0.682,0 1.16,0.499 1.16,1.214 0,1.279 -1.476,2.849 -11.268,4.262 l 0,1.949 L 0,0"
         style="fill:#dd1731;fill-opacity:1;fill-rule:nonzero;stroke:none"
         id="path64" /></g><g
       id="g66"
       transform="translate(111.731,119.961)"><path
         d="m 0,0 c 0,-0.562 0.459,-1.02 1.024,-1.02 0.563,0 1.022,0.458 1.022,1.02 0,0.565 -0.459,1.024 -1.022,1.024 C 0.459,1.024 0,0.565 0,0"
         style="fill:#dd1731;fill-opacity:1;fill-rule:nonzero;stroke:none"
         id="path68" /></g><g
       id="g70"
       transform="translate(92.547,89.366)"><path
         d="M 34.811,0 0,0 l 0,34.812 34.811,0 0,-34.812 z M 0,0 z m -2.099,-2.098 39.009,0 0,39.008 -39.009,0 0,-39.008 z"
         style="fill:#dd1731;fill-opacity:1;fill-rule:nonzero;stroke:none"
         id="path72" /></g><g
       id="g74"
       transform="translate(112.726,108.15)"><path
         d="m 0,0 c 0,-1.112 -1.129,-1.506 -2.094,-1.506 -1.87,0 -4.46,0.889 -4.46,2.561 0,1.33 1.131,1.61 2.078,1.61 C -3.074,2.665 0,1.994 0,0 m -7.639,1.523 c 0,-1.567 1.087,-2.414 1.607,-2.778 -1.037,-0.021 -1.52,-0.406 -1.52,-1.21 0,-1.299 1.772,-2.058 2.726,-2.467 l 0.045,-0.02 0.347,0.612 -0.052,0.027 c -0.058,0.028 -0.141,0.064 -0.239,0.109 -0.591,0.265 -1.818,0.818 -1.818,1.392 0,0.313 0.384,0.36 0.616,0.36 0.332,0 0.856,-0.101 1.646,-0.273 l 6.956,-1.624 c 1.032,-0.235 1.198,-0.347 1.198,-1.378 l 0,-0.046 0.785,-0.141 0,4.356 -0.785,0.181 0,-0.068 c 0,-1.347 -0.015,-1.571 -0.531,-1.571 -0.108,0 -0.367,0.062 -0.575,0.108 l -3.262,0.77 c 0.872,0.42 1.579,0.931 1.579,2.483 0,2.673 -3.008,4.097 -5.18,4.097 -1.764,0 -3.543,-0.902 -3.543,-2.919"
         style="fill:#dd1731;fill-opacity:1;fill-rule:nonzero;stroke:none"
         id="path76" /></g><g
       id="g78"
       transform="translate(112.824,687.941)"><path
         d="m 0,0 0,-0.057 c 0,-0.748 -0.325,-1.014 -1.1,-1.014 l -6.267,0.026 c -0.239,0 -0.367,-0.051 -0.367,-0.315 0,-0.068 0.019,-0.226 0.044,-0.466 0.065,-0.549 0.155,-1.565 0.191,-2.779 l 0.002,-0.053 0.784,0 0,0.055 c 0,0.64 0.175,1.064 0.917,1.064 l 1.825,-0.023 c 3.024,0 3.61,-1.213 3.61,-2.097 0,-0.724 -0.75,-0.994 -1.38,-0.994 l -5.626,0.034 c -0.239,0 -0.367,-0.051 -0.367,-0.315 0,-0.067 0.019,-0.228 0.044,-0.468 0.065,-0.547 0.155,-1.447 0.191,-2.659 l 0.002,-0.055 0.784,0 0,0.057 c 0,0.64 0.175,1.064 0.917,1.064 L -2,-9.029 c 2.473,0 2.992,1.279 2.992,2.35 0,1.6 -1.043,2.517 -1.6,3.015 -0.157,0.138 -0.316,0.279 -0.316,0.328 0,0.025 0,0.1 0.117,0.1 l 1.536,0 c 0.229,0 0.263,0.153 0.263,0.244 0,0.07 -0.02,0.225 -0.053,0.458 -0.077,0.565 -0.154,1.513 -0.154,2.477 L 0.785,0 0,0"
         style="fill:#dd1731;fill-opacity:1;fill-rule:nonzero;stroke:none"
         id="path80" /></g><g
       id="g82"
       transform="translate(105.418,704.879)"><path
         d="m 0,0 0,-1.989 -1.285,0.166 c -1.759,0.245 -2.508,0.563 -2.508,1.066 0,0.202 0.103,0.326 0.271,0.326 0.112,0 0.168,-0.015 0.227,-0.032 0.068,-0.017 0.135,-0.038 0.274,-0.038 0.29,0 0.628,0.18 0.628,0.696 0,0.621 -0.479,0.9 -0.954,0.9 -0.782,0 -1.229,-0.561 -1.229,-1.541 0,-2.18 3.059,-2.769 4.576,-3.053 l 0,-1.757 0.784,-0.162 0,1.8 0.761,-0.117 c 0.512,-0.079 1.021,-0.157 1.538,-0.234 l 0.879,-0.135 c 5.06,-0.766 7.308,-1.154 7.308,-1.99 0,-0.094 -0.028,-0.117 -0.134,-0.117 -0.036,0 -0.08,0.012 -0.131,0.024 -0.074,0.023 -0.167,0.045 -0.286,0.045 -0.346,0 -0.589,-0.257 -0.589,-0.625 0,-0.55 0.395,-0.798 0.764,-0.798 0.683,0 1.161,0.498 1.161,1.213 0,1.279 -1.477,2.851 -11.271,4.264 l 0,1.949 L 0,0"
         style="fill:#dd1731;fill-opacity:1;fill-rule:nonzero;stroke:none"
         id="path84" /></g><g
       id="g86"
       transform="translate(111.736,705.671)"><path
         d="m 0,0 c 0,-0.563 0.459,-1.021 1.024,-1.021 0.563,0 1.022,0.458 1.022,1.021 0,0.565 -0.459,1.024 -1.022,1.024 C 0.459,1.024 0,0.565 0,0"
         style="fill:#dd1731;fill-opacity:1;fill-rule:nonzero;stroke:none"
         id="path88" /></g><g
       id="g90"
       transform="translate(92.548,675.068)"><path
         d="M 34.819,0 0,0 l 0,34.82 34.819,0 0,-34.82 z M 0,0 z m -2.099,-2.099 39.018,0 0,39.017 -39.018,0 0,-39.017 z"
         style="fill:#dd1731;fill-opacity:1;fill-rule:nonzero;stroke:none"
         id="path92" /></g><g
       id="g94"
       transform="translate(112.731,693.857)"><path
         d="m 0,0 c 0,-1.112 -1.129,-1.507 -2.094,-1.507 -1.871,0 -4.461,0.89 -4.461,2.561 0,1.331 1.131,1.611 2.078,1.611 C -3.075,2.665 0,1.994 0,0 m -7.641,1.522 c 0,-1.566 1.088,-2.413 1.608,-2.778 -1.037,-0.021 -1.521,-0.406 -1.521,-1.21 0,-1.299 1.773,-2.058 2.728,-2.468 l 0.045,-0.02 0.346,0.612 -0.052,0.027 c -0.057,0.028 -0.141,0.065 -0.239,0.11 -0.591,0.265 -1.818,0.817 -1.818,1.392 0,0.313 0.384,0.359 0.616,0.359 0.332,0 0.856,-0.1 1.646,-0.273 l 6.959,-1.624 c 1.032,-0.234 1.198,-0.347 1.198,-1.378 l 0,-0.046 0.785,-0.141 0,4.357 -0.785,0.181 0,-0.068 c 0,-1.347 -0.015,-1.572 -0.532,-1.572 -0.108,0 -0.366,0.062 -0.575,0.109 l -3.263,0.77 c 0.873,0.42 1.58,0.931 1.58,2.484 0,2.673 -3.009,4.098 -5.182,4.098 -1.764,0 -3.544,-0.903 -3.544,-2.921"
         style="fill:#dd1731;fill-opacity:1;fill-rule:nonzero;stroke:none"
         id="path96" /></g><g
       id="g98"
       transform="translate(97.453,718.679)"><path
         d="m 0,0 2.99,0 c 1.511,0 2.557,1.006 2.557,3.093 0,2.26 -1.222,2.927 -2.763,2.927 l -2.814,0 c -0.751,0 -1.131,0.103 -1.131,0.945 l -0.472,0 0,-2.558 0.472,0 c 0,0.637 0.195,1.1 1.131,1.1 l 2.814,0 c 0.277,0 0.75,-0.021 1.058,-0.145 C 4.501,5.096 4.921,4.541 4.921,3.483 4.921,2.343 4.254,1.778 2.99,1.778 l -3.432,0 c -0.431,0 -0.719,0.173 -0.719,0.851 l 0,0.247 -0.472,0 0,-3.883 0.472,0 C -1.161,-0.205 -1.099,0 0,0"
         style="fill:#dd1731;fill-opacity:1;fill-rule:nonzero;stroke:none"
         id="path100" /></g><g
       id="g102"
       transform="translate(98.994,726.405)"><path
         d="m 0,0 2.795,0 c 0.513,0 0.658,-0.205 0.658,-0.688 l 0.4,0 0,2.702 -0.4,0 C 3.453,1.696 3.401,1.418 2.97,1.418 l -1.819,0 c -0.956,0 -1.531,0.534 -1.531,1.058 0,0.308 0.196,0.596 0.812,0.596 l 2.548,0 c 0.411,0 0.473,-0.288 0.473,-0.606 l 0.4,0 0,2.651 -0.4,0 C 3.453,4.706 3.339,4.489 2.948,4.489 l -2.373,0 c -1.068,0 -1.694,-0.503 -1.694,-1.51 0,-1.088 1.099,-1.52 1.099,-1.633 0,-0.051 -0.072,-0.061 -0.216,-0.061 l -0.719,0 c -0.093,0 -0.164,-0.011 -0.164,-0.092 0,-0.145 0.133,-1.07 0.154,-1.933 l 0.4,0 C -0.565,-0.277 -0.503,0 0,0"
         style="fill:#dd1731;fill-opacity:1;fill-rule:nonzero;stroke:none"
         id="path104" /></g><g
       id="g106"
       transform="translate(96.826,733.284)"><path
         d="m 0,0 c 0,0.431 -0.349,0.791 -0.781,0.791 -0.43,0 -0.78,-0.36 -0.78,-0.791 0,-0.431 0.35,-0.791 0.78,-0.791 C -0.349,-0.791 0,-0.431 0,0"
         style="fill:#dd1731;fill-opacity:1;fill-rule:nonzero;stroke:none"
         id="path108" /></g><g
       id="g110"
       transform="translate(102.447,734.846)"><path
         d="m 0,0 c 0,-0.432 0,-0.678 -0.525,-0.678 l -3.759,0 c -0.247,0 -0.288,-0.042 -0.288,-0.155 0,-0.298 0.112,-0.925 0.154,-2.003 l 0.4,0 c 0,0.452 0.072,0.74 0.72,0.74 l 2.773,0 C 0,-2.096 0,-2.353 0,-2.836 l 0.4,0 L 0.4,0 0,0"
         style="fill:#dd1731;fill-opacity:1;fill-rule:nonzero;stroke:none"
         id="path112" /></g><g
       id="g114"
       transform="translate(99.097,735.642)"><path
         d="m 0,0 3.812,1.633 0,0.863 -3.822,1.551 c -0.535,0.215 -0.626,0.36 -0.658,0.607 l -0.4,0 0,-1.788 0.4,0 c 0,0.4 0.155,0.647 0.525,0.647 0.35,0 0.863,-0.195 1.222,-0.339 L 2.25,2.711 C 2.353,2.671 2.455,2.651 2.455,2.599 2.455,2.568 2.394,2.538 2.25,2.476 L 0.832,1.859 C 0.309,1.633 -0.03,1.5 -0.266,1.5 c -0.36,0 -0.402,0.328 -0.402,0.616 l -0.4,0 0,-2.826 0.4,0 c 0,0.422 0.113,0.473 0.668,0.71"
         style="fill:#dd1731;fill-opacity:1;fill-rule:nonzero;stroke:none"
         id="path116" /></g><g
       id="g118"
       transform="translate(99.734,741.962)"><path
         d="m 0,0 c -1.006,0 -1.458,0.277 -1.458,0.698 0,0.473 0.493,0.699 1.406,0.699 l 0.207,0 c 0.071,0 0.102,-0.021 0.102,-0.082 L 0.257,0 0,0 z m 3.266,0.75 c 0,1.048 -0.615,1.87 -1.653,2.188 l 0,-0.463 C 2.136,2.26 2.64,1.89 2.64,1.16 2.64,0.585 2.178,0 0.853,0 l -0.195,0 0,2.908 c -1.449,0 -2.518,-0.762 -2.518,-2.128 0,-1.253 1.08,-2.363 2.568,-2.363 1.48,0 2.558,1.11 2.558,2.333"
         style="fill:#dd1731;fill-opacity:1;fill-rule:nonzero;stroke:none"
         id="path120" /></g><g
       id="g122"
       transform="translate(102.447,748.453)"><path
         d="m 0,0 c 0,-0.668 0,-1.028 -0.628,-1.028 l -1.572,0 c -1.006,0 -1.448,0.38 -1.448,0.534 0,0.144 0.76,0.031 0.76,0.73 0,0.472 -0.38,0.699 -0.801,0.699 -0.524,0 -0.883,-0.279 -0.883,-0.802 0,-0.822 1.099,-1.14 1.099,-1.294 0,-0.052 -0.072,-0.052 -0.113,-0.052 l -0.843,0 c -0.092,0 -0.143,-0.02 -0.143,-0.092 0,-0.113 0.133,-1.243 0.154,-1.983 l 0.4,0 c 0,0.565 0.062,0.843 0.565,0.843 l 2.825,0 C 0,-2.445 0,-2.826 0,-3.318 l 0.4,0 L 0.4,0 0,0"
         style="fill:#dd1731;fill-opacity:1;fill-rule:nonzero;stroke:none"
         id="path124" /></g><g
       id="g126"
       transform="translate(101.974,752.617)"><path
         d="m 0,0 c 0.38,0 0.626,-0.329 0.626,-0.812 0,-0.719 -0.545,-1.345 -1.273,-1.458 l 0,-0.391 c 0.277,0.009 0.544,0.031 0.821,0.031 0.278,0 0.555,-0.022 0.832,-0.031 l 0,0.369 C 0.843,-2.25 0.75,-2.137 0.75,-2.013 c 0,0.225 0.276,0.606 0.276,1.242 0,0.987 -0.677,1.716 -1.571,1.716 -1.87,0 -1.633,-2.743 -2.538,-2.743 -0.43,0 -0.616,0.308 -0.616,0.74 0,0.709 0.391,1.13 1.048,1.345 l 0,0.339 c -0.237,-0.01 -0.472,-0.03 -0.709,-0.03 -0.236,0 -0.472,0.02 -0.708,0.03 l 0,-0.318 c 0.133,-0.052 0.174,-0.175 0.174,-0.339 0,-0.268 -0.206,-0.411 -0.206,-1.017 0,-0.873 0.494,-1.695 1.377,-1.695 C -0.843,-2.743 -1.233,0 0,0"
         style="fill:#dd1731;fill-opacity:1;fill-rule:nonzero;stroke:none"
         id="path128" /></g><g
       id="g130"
       transform="translate(102.447,756.824)"><path
         d="m 0,0 c 0,-0.43 0,-0.678 -0.525,-0.678 l -3.759,0 c -0.247,0 -0.288,-0.04 -0.288,-0.154 0,-0.298 0.112,-0.925 0.154,-2.003 l 0.4,0 c 0,0.452 0.072,0.74 0.72,0.74 l 2.773,0 C 0,-2.095 0,-2.353 0,-2.835 l 0.4,0 L 0.4,0 0,0"
         style="fill:#dd1731;fill-opacity:1;fill-rule:nonzero;stroke:none"
         id="path132" /></g><g
       id="g134"
       transform="translate(96.826,755.263)"><path
         d="m 0,0 c 0,0.431 -0.349,0.791 -0.781,0.791 -0.43,0 -0.78,-0.36 -0.78,-0.791 0,-0.432 0.35,-0.792 0.78,-0.792 C -0.349,-0.792 0,-0.432 0,0"
         style="fill:#dd1731;fill-opacity:1;fill-rule:nonzero;stroke:none"
         id="path136" /></g><g
       id="g138"
       transform="translate(101.614,757.717)"><path
         d="m 0,0 c 0.945,0 1.388,0.401 1.388,1.244 0,0.801 -0.443,1.263 -1.152,1.551 L 0.083,2.455 C 0.328,2.312 0.648,2.137 0.648,1.808 0.648,1.613 0.555,1.417 0.103,1.417 l -3.288,0 0,1.161 -0.4,0 0,-1.161 -1.993,0 0,-0.38 c 0.883,-0.318 1.777,-0.801 2.055,-1.818 l 0.338,0 0,0.781 L 0,0"
         style="fill:#dd1731;fill-opacity:1;fill-rule:nonzero;stroke:none"
         id="path140" /></g><g
       id="g142"
       transform="translate(102.374,763.068)"><path
         d="m 0,0 c 0,-0.422 -0.297,-0.617 -0.852,-0.617 -0.956,0 -1.161,1.14 -1.161,1.531 0,0.051 0.061,0.051 0.461,0.051 C -0.513,0.965 0,0.575 0,0 m -0.575,-2.035 c 0.678,0 1.201,0.483 1.201,1.336 0,0.862 -0.564,1.499 -0.718,1.694 0.175,0.103 0.718,0.319 0.718,1.028 0,0.39 -0.185,0.873 -0.667,0.873 -0.061,0 -0.103,-0.03 -0.103,-0.071 0,-0.042 0.032,-0.104 0.032,-0.196 0,-0.154 -0.083,-0.246 -0.298,-0.246 l -1.942,0 c -1.408,0 -2.147,-0.627 -2.147,-2.404 0,-0.997 0.39,-1.798 1.129,-1.798 0.402,0 0.772,0.257 0.772,0.699 0,0.513 -0.32,0.719 -0.658,0.719 -0.473,0 -0.401,-0.298 -0.617,-0.298 -0.123,0 -0.226,0.144 -0.226,0.554 0,0.72 0.309,1.11 1.079,1.11 l 0.678,0 c 0.052,-1.068 0.329,-3 1.767,-3"
         style="fill:#dd1731;fill-opacity:1;fill-rule:nonzero;stroke:none"
         id="path144" /></g><g
       id="g146"
       transform="translate(101.614,766.881)"><path
         d="m 0,0 c 0.945,0 1.388,0.4 1.388,1.243 0,0.801 -0.443,1.263 -1.152,1.551 L 0.083,2.456 C 0.328,2.311 0.648,2.136 0.648,1.808 0.648,1.613 0.555,1.418 0.103,1.418 l -3.288,0 0,1.16 -0.4,0 0,-1.16 -1.993,0 0,-0.38 c 0.883,-0.319 1.777,-0.802 2.055,-1.82 l 0.338,0 0,0.782 L 0,0"
         style="fill:#dd1731;fill-opacity:1;fill-rule:nonzero;stroke:none"
         id="path148" /></g><g
       id="g150"
       transform="translate(107.772,720.559)"><path
         d="m 0,0 c -0.515,0 -0.7,0.216 -0.7,0.636 0,0.833 0.575,1.09 1.315,1.09 1.171,0 1.48,-0.422 1.48,-1.551 C 2.095,0.041 2.064,0 1.981,0 L 0,0 z m 5.414,1.171 0,-0.205 C 5.414,0.236 5.372,0 4.847,0 L 2.649,0 C 2.568,0 2.536,0.041 2.536,0.175 l 0,0.646 c 0,1.265 -0.328,2.868 -1.859,2.868 -1.079,0 -1.818,-0.751 -1.818,-2.683 l 0,-3.708 0.473,0 c 0,0.617 0.03,0.925 0.698,0.925 l 4.817,0 c 0.33,0 0.567,-0.165 0.567,-0.637 l 0,-0.288 0.472,0 0,3.873 -0.472,0"
         style="fill:#dd1731;fill-opacity:1;fill-rule:nonzero;stroke:none"
         id="path152" /></g><g
       id="g154"
       transform="translate(113.411,726.851)"><path
         d="m 0,0 c 0,-0.524 -0.267,-0.904 -2.158,-0.904 -1.92,0 -2.166,0.442 -2.166,0.904 0,0.462 0.246,0.904 2.166,0.904 C -0.267,0.904 0,0.524 0,0 m -4.726,0 c 0,-1.315 1.08,-2.486 2.568,-2.486 1.48,0 2.559,1.11 2.559,2.486 0,1.377 -1.079,2.486 -2.559,2.486 -1.488,0 -2.568,-1.171 -2.568,-2.486"
         style="fill:#dd1731;fill-opacity:1;fill-rule:nonzero;stroke:none"
         id="path156" /></g><g
       id="g158"
       transform="translate(108.84,729.675)"><path
         d="m 0,0 0.4,0 c 0,0.36 0.062,0.627 0.565,0.627 l 2.826,0 C 4.376,0.627 4.418,0.34 4.418,0 l 0.399,0 0,2.661 -0.399,0 C 4.418,2.198 4.304,2.045 3.791,2.045 l -1.48,0 c -0.915,0 -1.726,0.411 -1.726,0.945 0,0.421 0.298,0.668 1.203,0.668 l 2.003,0 c 0.585,0 0.627,-0.288 0.627,-0.606 l 0.399,0 0,2.64 -0.399,0 C 4.418,5.229 4.304,5.076 3.791,5.076 l -1.48,0 c -0.915,0 -1.726,0.41 -1.726,0.944 0,0.422 0.298,0.669 1.203,0.669 l 2.003,0 c 0.585,0 0.627,-0.288 0.627,-0.607 l 0.399,0 0,2.64 -0.399,0 C 4.418,8.26 4.304,8.107 3.791,8.107 l -2.158,0 c -1.13,0 -1.788,-0.576 -1.788,-1.49 0,-1.243 1.12,-1.47 1.12,-1.593 0,-0.133 -1.12,-0.155 -1.12,-1.448 0,-1.12 1.1,-1.511 1.1,-1.645 C 0.945,1.87 0.842,1.87 0.667,1.87 l -0.677,0 C -0.103,1.87 -0.155,1.85 -0.155,1.778 -0.155,1.603 -0.041,0.71 0,0"
         style="fill:#dd1731;fill-opacity:1;fill-rule:nonzero;stroke:none"
         id="path160" /></g><g
       id="g162"
       transform="translate(109.312,741.553)"><path
         d="m 0,0 c 0,0.688 0.565,0.884 1.983,0.884 1.201,0 1.891,-0.278 1.891,-0.905 0,-0.626 -0.771,-0.904 -1.891,-0.904 C 1.068,-0.925 0,-0.802 0,0 m -0.072,-3.082 c 0,0.462 0.062,0.74 0.565,0.74 l 4.921,0 c 0.432,0 0.535,-0.401 0.535,-0.74 l 0.4,0 0,3.195 -0.4,0 c 0,-0.74 -0.042,-1.038 -0.514,-1.038 l -1.459,0 c -0.062,0 -0.124,0.021 -0.124,0.073 0,0.102 0.648,0.338 0.648,1.295 0,1.293 -1.161,2.023 -2.661,2.023 -1.551,0 -2.466,-0.893 -2.466,-2.004 0,-1.047 0.864,-1.418 0.864,-1.52 0,-0.031 -0.052,-0.052 -0.216,-0.052 l -0.503,0 c -0.073,0 -0.145,-0.02 -0.145,-0.092 0,-0.113 0.134,-1.202 0.155,-1.88 l 0.4,0"
         style="fill:#dd1731;fill-opacity:1;fill-rule:nonzero;stroke:none"
         id="path164" /></g><g
       id="g166"
       transform="translate(110.545,746.267)"><path
         d="m 0,0 c -1.007,0 -1.459,0.279 -1.459,0.699 0,0.473 0.494,0.698 1.407,0.698 l 0.206,0 c 0.072,0 0.103,-0.02 0.103,-0.082 L 0.257,0 0,0 z m 1.613,2.938 0,-0.461 C 2.138,2.26 2.641,1.892 2.641,1.162 2.641,0.585 2.178,0 0.853,0 l -0.195,0 0,2.908 c -1.45,0 -2.518,-0.76 -2.518,-2.126 0,-1.255 1.078,-2.363 2.568,-2.363 1.48,0 2.559,1.108 2.559,2.331 0,1.048 -0.616,1.87 -1.654,2.188"
         style="fill:#dd1731;fill-opacity:1;fill-rule:nonzero;stroke:none"
         id="path168" /></g><g
       id="g170"
       transform="translate(113.258,755.293)"><path
         d="m 0,0 c 0,-0.483 -0.196,-0.638 -0.659,-0.638 l -3.729,0 c -0.143,0 -0.184,-0.03 -0.184,-0.154 0,-0.133 0.123,-0.904 0.154,-1.931 l 0.4,0 c 0,0.349 0.072,0.668 0.565,0.668 l 1.46,0 c 1.139,0 1.808,-0.555 1.808,-1.131 0,-0.41 -0.371,-0.553 -0.854,-0.553 l -3.349,0 c -0.143,0 -0.184,-0.032 -0.184,-0.155 0,-0.133 0.123,-0.904 0.154,-1.932 l 0.4,0 c 0,0.35 0.072,0.669 0.565,0.669 l 2.261,0 c 1.263,0 1.746,0.575 1.746,1.366 0,1.274 -1.141,1.674 -1.141,1.838 0,0.062 0.042,0.093 0.103,0.093 l 0.915,0 c 0.062,0 0.123,0.021 0.123,0.114 C 0.554,-1.613 0.4,-0.812 0.4,0 L 0,0"
         style="fill:#dd1731;fill-opacity:1;fill-rule:nonzero;stroke:none"
         id="path172" /></g><g
       id="g174"
       transform="translate(107.072,762.36)"><path
         d="m 0,0 c 0,1.141 0.545,1.973 1.706,2.096 l 0,0.473 -2.147,-0.042 0,-6.368 0.472,0 c 0,0.585 0.031,0.893 0.699,0.893 l 4.819,0 c 0.328,0 0.565,-0.165 0.565,-0.637 l 0,-0.256 0.472,0 0,3.811 -0.472,0 0,-0.175 c 0,-0.73 -0.042,-0.965 -0.565,-0.965 l -2.23,0 c -0.135,0 -0.154,0.05 -0.154,0.245 0,0.946 0.38,1.243 1.326,1.305 l 0,0.453 -3.042,0 0,-0.473 c 1.069,0 1.274,-0.524 1.274,-1.377 0,-0.123 -0.041,-0.153 -0.175,-0.153 l -2.013,0 C 0.114,-1.17 0,-1.037 0,0"
         style="fill:#dd1731;fill-opacity:1;fill-rule:nonzero;stroke:none"
         id="path176" /></g><g
       id="g178"
       transform="translate(113.186,767.189)"><path
         d="m 0,0 c 0,-0.422 -0.298,-0.617 -0.854,-0.617 -0.954,0 -1.161,1.14 -1.161,1.531 0,0.051 0.062,0.051 0.463,0.051 C -0.514,0.965 0,0.575 0,0 m -0.145,2.825 c 0,-0.041 0.031,-0.103 0.031,-0.196 0,-0.153 -0.081,-0.246 -0.298,-0.246 l -1.941,0 c -1.408,0 -2.148,-0.627 -2.148,-2.404 0,-0.996 0.39,-1.797 1.13,-1.797 0.402,0 0.771,0.256 0.771,0.698 0,0.513 -0.318,0.718 -0.657,0.718 -0.473,0 -0.401,-0.297 -0.617,-0.297 -0.123,0 -0.225,0.144 -0.225,0.555 0,0.719 0.308,1.109 1.078,1.109 l 0.678,0 c 0.052,-1.068 0.328,-3 1.767,-3 0.678,0 1.202,0.484 1.202,1.336 0,0.862 -0.565,1.5 -0.719,1.695 0.174,0.103 0.719,0.319 0.719,1.027 0,0.391 -0.185,0.875 -0.668,0.875 -0.061,0 -0.103,-0.032 -0.103,-0.073"
         style="fill:#dd1731;fill-opacity:1;fill-rule:nonzero;stroke:none"
         id="path180" /></g><g
       id="g182"
       transform="translate(113.411,773.38)"><path
         d="m 0,0 c 0,-0.647 -0.811,-0.975 -2.064,-0.975 -1.377,0 -2.035,0.328 -2.035,0.975 0,0.535 0.391,0.843 2.209,0.843 C -0.585,0.843 0,0.555 0,0 m -4.726,0.442 c 0,-1.017 0.76,-1.233 0.76,-1.346 0,-0.061 -0.051,-0.071 -0.297,-0.071 l -2.959,0 c -0.082,0 -0.113,-0.042 -0.113,-0.093 0,-0.175 0.164,-0.966 0.206,-2.085 l 0.4,0 0,0.092 c 0,0.483 0.144,0.668 0.699,0.668 l 3.503,0 c 1.182,0 2.147,0 2.928,-0.042 l 0,0.391 c -0.154,0.092 -0.833,0.514 -0.833,0.626 0,0.145 0.833,0.586 0.833,1.49 0,1.449 -1.181,2.352 -2.599,2.352 -1.295,0 -2.528,-0.708 -2.528,-1.982"
         style="fill:#dd1731;fill-opacity:1;fill-rule:nonzero;stroke:none"
         id="path184" /></g><g
       id="g186"
       transform="translate(108.685,779.579)"><path
         d="m 0,0 c 0,-0.822 1.1,-1.14 1.1,-1.295 0,-0.051 -0.072,-0.051 -0.113,-0.051 l -0.842,0 C 0.052,-1.346 0,-1.367 0,-1.439 0,-1.552 0.134,-2.681 0.155,-3.421 l 0.4,0 c 0,0.565 0.062,0.843 0.565,0.843 l 2.826,0 c 0.626,0 0.626,-0.381 0.626,-0.874 l 0.401,0 0,3.319 -0.401,0 c 0,-0.669 0,-1.027 -0.626,-1.027 l -1.572,0 c -1.007,0 -1.449,0.38 -1.449,0.533 0,0.144 0.76,0.031 0.76,0.73 0,0.473 -0.38,0.698 -0.801,0.698 C 0.36,0.801 0,0.524 0,0"
         style="fill:#dd1731;fill-opacity:1;fill-rule:nonzero;stroke:none"
         id="path188" /></g><g
       id="g190"
       transform="translate(113.186,782.78)"><path
         d="m 0,0 c 0,-0.421 -0.298,-0.617 -0.854,-0.617 -0.954,0 -1.161,1.141 -1.161,1.531 0,0.052 0.062,0.052 0.463,0.052 C -0.514,0.966 0,0.574 0,0 m -0.145,2.825 c 0,-0.041 0.031,-0.103 0.031,-0.195 0,-0.155 -0.081,-0.246 -0.298,-0.246 l -1.941,0 c -1.408,0 -2.148,-0.628 -2.148,-2.405 0,-0.996 0.39,-1.798 1.13,-1.798 0.402,0 0.771,0.257 0.771,0.699 0,0.514 -0.318,0.719 -0.657,0.719 -0.473,0 -0.401,-0.298 -0.617,-0.298 -0.123,0 -0.225,0.143 -0.225,0.555 0,0.718 0.308,1.11 1.078,1.11 l 0.678,0 c 0.052,-1.069 0.328,-3 1.767,-3 0.678,0 1.202,0.482 1.202,1.335 0,0.863 -0.565,1.5 -0.719,1.695 0.174,0.103 0.719,0.318 0.719,1.028 0,0.39 -0.185,0.873 -0.668,0.873 -0.061,0 -0.103,-0.031 -0.103,-0.072"
         style="fill:#dd1731;fill-opacity:1;fill-rule:nonzero;stroke:none"
         id="path192" /></g><g
       id="g194"
       transform="translate(120.482,721.432)"><path
         d="m 0,0 0,-0.79 -2.013,0.461 c -0.473,0.114 -0.565,0.195 -0.565,1.192 0,1.285 0.257,1.86 1.11,1.86 C -0.02,2.723 0,1.018 0,0 m 1.881,2.301 c 1.119,0 1.644,-0.668 1.644,-2.671 0,-0.955 -0.155,-1.037 -0.474,-1.037 -0.092,0 -0.235,0.02 -0.38,0.051 l -2.207,0.473 0,0.513 c 0,1.366 0.051,2.671 1.417,2.671 m -3.442,1.388 c -1.16,0 -1.48,-1.028 -1.48,-2.313 l 0,-3.533 0.463,-0.103 0,0.206 c 0,0.564 0.082,0.79 0.37,0.79 0.154,0 0.309,-0.031 0.523,-0.081 l 4.573,-0.987 c 0.451,-0.093 0.637,-0.195 0.637,-0.811 l 0,-0.268 0.461,-0.102 0,3.811 c 0,2.24 -1.108,3.082 -2.208,3.082 -1.151,0 -1.418,-1.161 -1.5,-1.674 l -0.021,0 C 0.134,2.23 -0.04,3.689 -1.561,3.689"
         style="fill:#dd1731;fill-opacity:1;fill-rule:nonzero;stroke:none"
         id="path196" /></g><g
       id="g198"
       transform="translate(124.13,727.517)"><path
         d="m 0,0 c 0,-0.615 -0.565,-0.8 -1.09,-0.8 -0.863,0 -3.081,0.627 -3.081,1.685 0,0.688 0.627,0.77 1.058,0.77 C -2.281,1.655 0,1.08 0,0 m -0.093,2.158 c 0,-0.163 -0.124,-0.225 -0.328,-0.225 -0.555,0 -2.857,0.605 -4.058,0.975 l 0,-0.77 0.626,-0.205 0.021,-0.021 C -4.048,1.83 -4.634,1.593 -4.634,0.802 c 0,-1.54 2.045,-2.445 3.371,-2.445 0.903,0 1.756,0.402 1.756,1.335 0,0.782 -0.719,1.336 -0.914,1.511 l 0.019,0.02 c 0.341,0.022 0.895,0.072 0.895,0.658 0,0.698 -0.895,1.243 -1.448,1.49 L -1.172,3.053 C -0.915,2.95 -0.093,2.498 -0.093,2.158"
         style="fill:#dd1731;fill-opacity:1;fill-rule:nonzero;stroke:none"
         id="path200" /></g><g
       id="g202"
       transform="translate(119.496,734.758)"><path
         d="M 0,0 C 0,-0.688 1.038,-1.254 1.47,-1.501 L 1.449,-1.521 C 1.356,-1.501 1.141,-1.449 0.833,-1.449 0.35,-1.449 0,-1.675 0,-2.106 0,-2.856 1.028,-3.298 1.603,-3.544 l 0.175,0.308 c -0.247,0.123 -1.243,0.503 -1.243,0.924 0,0.134 0.133,0.226 0.36,0.226 0.441,0 1.571,-0.257 2.526,-0.533 l 1.551,-0.453 0,0.781 c -3.041,0.74 -4.314,1.582 -4.314,1.88 0,0.082 0.042,0.133 0.103,0.133 0.112,0 0.124,-0.051 0.297,-0.051 0.227,0 0.37,0.206 0.37,0.453 C 1.428,0.43 1.233,0.688 0.73,0.688 0.329,0.688 0,0.452 0,0"
         style="fill:#dd1731;fill-opacity:1;fill-rule:nonzero;stroke:none"
         id="path204" /></g><g
       id="g206"
       transform="translate(119.496,738.452)"><path
         d="m 0,0 c 0,-1.654 1.501,-2.784 3.072,-2.784 0.914,0 2.055,0.503 2.055,2.075 0,0.791 -0.493,1.499 -1.089,1.983 L 3.719,0.975 c 0.503,-0.358 0.915,-0.944 0.915,-1.581 0,-0.874 -0.708,-1.213 -1.51,-1.213 -1.541,0 -2.723,0.812 -2.723,1.798 0,0.401 0.144,0.668 0.287,0.668 0.207,0 0.216,-0.38 0.69,-0.38 0.287,0 0.482,0.225 0.482,0.535 C 1.86,1.253 1.49,1.51 1.12,1.51 0.34,1.51 0,0.699 0,0"
         style="fill:#dd1731;fill-opacity:1;fill-rule:nonzero;stroke:none"
         id="path208" /></g><g
       id="g210"
       transform="translate(119.897,743.252)"><path
         d="m 0,0 c 0,0.38 0.227,0.658 0.657,0.658 0.998,0 1.551,-1.428 1.706,-2.425 l -0.02,-0.02 C 1.552,-1.726 0,-1.109 0,0 m 0.657,1.562 c -0.811,0 -1.058,-0.73 -1.058,-1.387 0,-1.674 1.706,-2.928 3.288,-2.928 1.058,0 1.839,0.565 1.839,1.756 0,1.192 -0.72,1.89 -1.12,2.333 L 3.298,1.09 c 0.555,-0.577 0.935,-1.213 0.935,-1.83 0,-0.759 -0.493,-1.109 -1.213,-1.109 -0.092,0 -0.205,0.011 -0.277,0.021 -0.451,2.168 -0.976,3.39 -2.086,3.39"
         style="fill:#dd1731;fill-opacity:1;fill-rule:nonzero;stroke:none"
         id="path212" /></g><g
       id="g214"
       transform="translate(124.037,746.573)"><path
         d="m 0,0 c 0,-0.165 -0.133,-0.278 -0.411,-0.278 -0.216,0 -0.421,0.072 -0.759,0.155 L -6.872,1.295 -6.986,1.211 c 0.072,-0.483 0.134,-1.088 0.144,-1.838 l 0.401,-0.093 0,0.237 c 0,0.493 0.062,0.668 0.39,0.668 0.257,0 0.72,-0.103 1.233,-0.227 l 2.969,-0.729 c 0.658,-0.164 1.13,-0.287 1.479,-0.287 0.483,0 0.905,0.246 0.905,0.863 0,0.77 -1.048,1.365 -1.665,1.633 L -1.283,1.099 C -0.924,0.923 0,0.441 0,0"
         style="fill:#dd1731;fill-opacity:1;fill-rule:nonzero;stroke:none"
         id="path216" /></g><g
       id="g218"
       transform="translate(124.222,750.619)"><path
         d="m 0,0 c 0,-0.801 -0.637,-1.089 -1.335,-1.089 -1.028,0 -2.99,0.513 -2.99,1.766 0,0.864 0.596,1.172 1.407,1.172 C -2.105,1.849 0,1.397 0,0 m -4.726,0.75 c 0,-1.623 1.449,-2.744 3.124,-2.744 1.089,0 2.003,0.638 2.003,1.973 0,1.685 -1.531,2.774 -3.009,2.774 -1.214,0 -2.118,-0.76 -2.118,-2.003"
         style="fill:#dd1731;fill-opacity:1;fill-rule:nonzero;stroke:none"
         id="path220" /></g><g
       id="g222"
       transform="translate(124.037,758.363)"><path
         d="m 0,0 c 0,-0.205 -0.164,-0.298 -0.339,-0.298 -0.308,0 -0.688,0.165 -1.541,0.503 -0.462,0.185 -1.027,0.411 -1.541,0.411 -0.677,0 -1.12,-0.421 -1.12,-1.089 0,-0.883 0.915,-1.52 1.47,-1.859 l -0.02,-0.021 c -0.094,0.021 -0.309,0.072 -0.617,0.072 -0.483,0 -0.833,-0.225 -0.833,-0.657 0,-0.75 1.028,-1.191 1.603,-1.438 l 0.175,0.307 c -0.247,0.125 -1.243,0.505 -1.243,0.925 0,0.135 0.133,0.227 0.36,0.227 0.441,0 1.571,-0.257 2.526,-0.535 l 1.551,-0.452 0,0.822 -1.714,0.463 c -1.645,0.451 -2.723,1.088 -2.723,1.982 0,0.247 0.165,0.472 0.513,0.472 0.36,0 0.638,-0.133 1.295,-0.4 0.77,-0.308 1.263,-0.513 1.746,-0.513 0.555,0 0.987,0.235 0.987,0.79 0,0.833 -0.894,1.336 -1.562,1.696 L -1.212,1.048 C -0.873,0.873 0,0.421 0,0"
         style="fill:#dd1731;fill-opacity:1;fill-rule:nonzero;stroke:none"
         id="path224" /></g><g
       id="g226"
       transform="translate(124.13,762.03)"><path
         d="m 0,0 c 0,-0.616 -0.565,-0.801 -1.09,-0.801 -0.863,0 -3.081,0.627 -3.081,1.685 0,0.688 0.627,0.771 1.058,0.771 C -2.281,1.655 0,1.079 0,0 m -0.093,2.158 c 0,-0.165 -0.124,-0.226 -0.328,-0.226 -0.555,0 -2.857,0.606 -4.058,0.976 l 0,-0.771 0.626,-0.205 0.021,-0.02 c -0.216,-0.083 -0.802,-0.32 -0.802,-1.11 0,-1.541 2.045,-2.446 3.371,-2.446 0.903,0 1.756,0.402 1.756,1.336 0,0.781 -0.719,1.335 -0.914,1.51 l 0.019,0.021 c 0.341,0.021 0.895,0.072 0.895,0.658 0,0.698 -0.895,1.242 -1.448,1.489 L -1.172,3.052 c 0.257,-0.103 1.079,-0.555 1.079,-0.894"
         style="fill:#dd1731;fill-opacity:1;fill-rule:nonzero;stroke:none"
         id="path228" /></g><g
       id="g230"
       transform="translate(688.441,536.359)"><path
         d="m 0,0 0,-0.024 c 0,-0.325 -0.141,-0.44 -0.476,-0.44 l -2.713,0.012 c -0.104,0 -0.159,-0.022 -0.159,-0.137 0,-0.029 0.008,-0.098 0.019,-0.202 0.028,-0.237 0.067,-0.677 0.083,-1.202 l 0,-0.023 0.34,0 0,0.023 c 0,0.277 0.076,0.461 0.397,0.461 l 0.79,-0.01 c 1.309,0 1.562,-0.525 1.562,-0.908 0,-0.313 -0.324,-0.43 -0.597,-0.43 l -2.435,0.015 c -0.104,0 -0.159,-0.022 -0.159,-0.136 0,-0.03 0.008,-0.099 0.019,-0.204 0.028,-0.236 0.067,-0.626 0.083,-1.151 l 0,-0.023 0.34,0 0,0.024 c 0,0.277 0.076,0.461 0.397,0.461 l 1.643,-0.015 c 1.071,0 1.295,0.554 1.295,1.018 0,0.692 -0.451,1.089 -0.693,1.305 -0.067,0.06 -0.136,0.12 -0.136,0.142 0,0.011 0,0.043 0.05,0.043 l 0.666,0 c 0.099,0 0.113,0.066 0.113,0.106 0,0.03 -0.008,0.097 -0.023,0.198 -0.033,0.245 -0.067,0.655 -0.067,1.073 L 0.339,0 0,0"
         style="fill:#ffffff;fill-opacity:1;fill-rule:nonzero;stroke:none"
         id="path232" /></g><g
       id="g234"
       transform="translate(685.235,543.691)"><path
         d="m 0,0 0,-0.86 -0.557,0.071 c -0.761,0.106 -1.085,0.244 -1.085,0.462 0,0.087 0.044,0.141 0.117,0.141 0.048,0 0.073,-0.007 0.098,-0.014 0.03,-0.007 0.059,-0.016 0.119,-0.016 0.125,0 0.272,0.078 0.272,0.301 0,0.269 -0.208,0.389 -0.413,0.389 -0.339,0 -0.532,-0.242 -0.532,-0.667 0,-0.943 1.324,-1.199 1.981,-1.321 l 0,-0.761 0.339,-0.07 0,0.779 0.33,-0.05 C 0.89,-1.651 1.11,-1.684 1.335,-1.718 l 0.38,-0.058 c 2.19,-0.332 3.163,-0.499 3.163,-0.862 0,-0.04 -0.012,-0.05 -0.058,-0.05 -0.015,0 -0.034,0.005 -0.056,0.01 -0.032,0.01 -0.073,0.02 -0.124,0.02 -0.15,0 -0.255,-0.112 -0.255,-0.271 0,-0.238 0.171,-0.345 0.331,-0.345 0.295,0 0.502,0.215 0.502,0.525 0,0.554 -0.639,1.233 -4.879,1.845 l 0,0.844 L 0,0"
         style="fill:#ffffff;fill-opacity:1;fill-rule:nonzero;stroke:none"
         id="path236" /></g><g
       id="g238"
       transform="translate(687.97,544.034)"><path
         d="m 0,0 c 0,-0.243 0.199,-0.442 0.443,-0.442 0.244,0 0.443,0.199 0.443,0.442 0,0.245 -0.199,0.443 -0.443,0.443 C 0.199,0.443 0,0.245 0,0"
         style="fill:#ffffff;fill-opacity:1;fill-rule:nonzero;stroke:none"
         id="path240" /></g><g
       id="g242"
       transform="translate(679.663,530.786)"><path
         d="M 15.074,0 0,0 l 0,15.074 15.074,0 0,-15.074 z M 0,0 z m -0.908,-0.908 16.891,0 0,16.89 -16.891,0 0,-16.89 z"
         style="fill:#ffffff;fill-opacity:1;fill-rule:nonzero;stroke:none"
         id="path244" /></g><g
       id="g246"
       transform="translate(688.401,538.92)"><path
         d="m 0,0 c 0,-0.482 -0.489,-0.652 -0.907,-0.652 -0.81,0 -1.931,0.385 -1.931,1.108 0,0.576 0.489,0.698 0.9,0.698 C -1.331,1.154 0,0.863 0,0 m -3.308,0.659 c 0,-0.678 0.471,-1.045 0.696,-1.203 -0.449,-0.009 -0.658,-0.176 -0.658,-0.523 0,-0.563 0.767,-0.892 1.18,-1.069 l 0.02,-0.009 0.15,0.265 -0.023,0.012 c -0.025,0.012 -0.061,0.028 -0.103,0.048 -0.256,0.114 -0.787,0.354 -0.787,0.602 0,0.136 0.166,0.156 0.266,0.156 0.144,0 0.371,-0.044 0.713,-0.119 l 3.012,-0.703 c 0.447,-0.101 0.519,-0.15 0.519,-0.596 l 0,-0.02 0.34,-0.061 0,1.886 -0.34,0.078 0,-0.029 c 0,-0.583 -0.007,-0.68 -0.23,-0.68 -0.047,0 -0.159,0.026 -0.249,0.047 l -1.413,0.333 c 0.378,0.182 0.684,0.403 0.684,1.075 0,1.158 -1.302,1.774 -2.243,1.774 -0.764,0 -1.534,-0.391 -1.534,-1.264"
         style="fill:#ffffff;fill-opacity:1;fill-rule:nonzero;stroke:none"
         id="path248" /></g><text
       transform="scale(1,-1)"
       id="text256"
       x="54.938118"
       y="-535.09406"><tspan
         style="font-variant:normal;font-weight:bold;font-stretch:normal;font-size:12.80000019px;font-family:'Liberation Serif';-inkscape-font-specification:'Liberation Serif Bold';writing-mode:lr-tb;fill:#ffffff;fill-opacity:1;fill-rule:nonzero;stroke:none;font-style:normal"
         sodipodi:role="line"
         id="tspan258"
         x="54.938118"
         y="-535.09406">Rong Gong</tspan></text>
<text
       transform="matrix(0,1,1,0,531.945,672.969)"
       id="text260"
       style="fill:#d91920;fill-opacity:1;-inkscape-font-specification:'Liberation Sans';font-family:'Liberation Sans';font-weight:normal;font-style:normal;font-stretch:normal;font-variant:normal;"><tspan
         style="font-variant:normal;font-weight:normal;font-stretch:normal;font-size:18px;font-family:'Liberation Serif';-inkscape-font-specification:'Liberation Serif';writing-mode:lr-tb;fill:#d91920;fill-opacity:1;fill-rule:nonzero;stroke:none;font-style:normal"
         sodipodi:role="line"
         id="tspan262"
         x="0"
         y="0">Rong Gong </tspan></text>
<g
       id="g272"
       transform="translate(21,15)"><path
         d="M 0,0 0,-15"
         style="fill:none;stroke:#ffffff;stroke-opacity:1;stroke-width:1.25;stroke-linecap:butt;stroke-linejoin:miter;stroke-miterlimit:10;stroke-dasharray:none"
         id="path274" /><g
         id="g276"
         transform="translate(0,1046.65)"><path
           d="M 0,0 0,15"
           style="fill:none;stroke:#ffffff;stroke-opacity:1;stroke-width:1.25;stroke-linecap:butt;stroke-linejoin:miter;stroke-miterlimit:10;stroke-dasharray:none"
           id="path278" /><g
           id="g280"
           transform="translate(708.661,-1046.65)"><path
             d="M 0,0 0,-15"
             style="fill:none;stroke:#ffffff;stroke-opacity:1;stroke-width:1.25;stroke-linecap:butt;stroke-linejoin:miter;stroke-miterlimit:10;stroke-dasharray:none"
             id="path282" /><g
             id="g284"
             transform="translate(0,1046.65)"><path
               d="M 0,0 0,15"
               style="fill:none;stroke:#ffffff;stroke-opacity:1;stroke-width:1.25;stroke-linecap:butt;stroke-linejoin:miter;stroke-miterlimit:10;stroke-dasharray:none"
               id="path286" /><g
               id="g288"
               transform="translate(-714.661,-1040.65)"><path
                 d="M 0,0 -15,0"
                 style="fill:none;stroke:#ffffff;stroke-opacity:1;stroke-width:1.25;stroke-linecap:butt;stroke-linejoin:miter;stroke-miterlimit:10;stroke-dasharray:none"
                 id="path290" /><g
                 id="g292"
                 transform="translate(720.661,0)"><path
                   d="M 0,0 15,0"
                   style="fill:none;stroke:#ffffff;stroke-opacity:1;stroke-width:1.25;stroke-linecap:butt;stroke-linejoin:miter;stroke-miterlimit:10;stroke-dasharray:none"
                   id="path294" /><g
                   id="g296"
                   transform="translate(-720.661,1034.65)"><path
                     d="M 0,0 -15,0"
                     style="fill:none;stroke:#ffffff;stroke-opacity:1;stroke-width:1.25;stroke-linecap:butt;stroke-linejoin:miter;stroke-miterlimit:10;stroke-dasharray:none"
                     id="path298" /><g
                     id="g300"
                     transform="translate(720.661,0)"><path
                       d="M 0,0 15,0"
                       style="fill:none;stroke:#ffffff;stroke-opacity:1;stroke-width:1.25;stroke-linecap:butt;stroke-linejoin:miter;stroke-miterlimit:10;stroke-dasharray:none"
                       id="path302" /></g></g></g></g></g></g></g></g><g
       id="g304"
       transform="translate(21,15)"><path
         d="M 0,0 0,-15"
         style="fill:none;stroke:#231f20;stroke-opacity:1;stroke-width:0.25;stroke-linecap:butt;stroke-linejoin:miter;stroke-miterlimit:10;stroke-dasharray:none"
         id="path306" /><g
         id="g308"
         transform="translate(0,1046.65)"><path
           d="M 0,0 0,15"
           style="fill:none;stroke:#231f20;stroke-opacity:1;stroke-width:0.25;stroke-linecap:butt;stroke-linejoin:miter;stroke-miterlimit:10;stroke-dasharray:none"
           id="path310" /><g
           id="g312"
           transform="translate(708.661,-1046.65)"><path
             d="M 0,0 0,-15"
             style="fill:none;stroke:#231f20;stroke-opacity:1;stroke-width:0.25;stroke-linecap:butt;stroke-linejoin:miter;stroke-miterlimit:10;stroke-dasharray:none"
             id="path314" /><g
             id="g316"
             transform="translate(0,1046.65)"><path
               d="M 0,0 0,15"
               style="fill:none;stroke:#231f20;stroke-opacity:1;stroke-width:0.25;stroke-linecap:butt;stroke-linejoin:miter;stroke-miterlimit:10;stroke-dasharray:none"
               id="path318" /><g
               id="g320"
               transform="translate(-714.661,-1040.65)"><path
                 d="M 0,0 -15,0"
                 style="fill:none;stroke:#231f20;stroke-opacity:1;stroke-width:0.25;stroke-linecap:butt;stroke-linejoin:miter;stroke-miterlimit:10;stroke-dasharray:none"
                 id="path322" /><g
                 id="g324"
                 transform="translate(720.661,0)"><path
                   d="M 0,0 15,0"
                   style="fill:none;stroke:#231f20;stroke-opacity:1;stroke-width:0.25;stroke-linecap:butt;stroke-linejoin:miter;stroke-miterlimit:10;stroke-dasharray:none"
                   id="path326" /><g
                   id="g328"
                   transform="translate(-720.661,1034.65)"><path
                     d="M 0,0 -15,0"
                     style="fill:none;stroke:#231f20;stroke-opacity:1;stroke-width:0.25;stroke-linecap:butt;stroke-linejoin:miter;stroke-miterlimit:10;stroke-dasharray:none"
                     id="path330" /><g
                     id="g332"
                     transform="translate(720.661,0)"><path
                       d="M 0,0 15,0"
                       style="fill:none;stroke:#231f20;stroke-opacity:1;stroke-width:0.25;stroke-linecap:butt;stroke-linejoin:miter;stroke-miterlimit:10;stroke-dasharray:none"
                       id="path334" /></g></g></g></g></g></g></g></g><text
       xml:space="preserve"
       style="font-style:normal;font-variant:normal;font-weight:normal;font-stretch:normal;font-size:38.40000153px;line-height:125%;font-family:NaJeyah;-inkscape-font-specification:NaJeyah;text-align:start;letter-spacing:0px;word-spacing:0px;writing-mode:lr-tb;text-anchor:start;fill:#000000;fill-opacity:1;stroke:none"
       x="311.30557"
       y="-539.35333"
       id="text3958"
       sodipodi:linespacing="125%"
       transform="scale(1,-1)"><tspan
         sodipodi:role="line"
         x="311.30557"
         y="-539.35333"
         id="tspan3966"
         style="font-style:normal;font-variant:normal;font-weight:normal;font-stretch:normal;font-size:10px;font-family:'Futura ICG';-inkscape-font-specification:'Futura ICG';fill:#ffffff;fill-opacity:1">Automatic Assessemtn of Singing Voice Pronunciation:</tspan><tspan
         sodipodi:role="line"
         x="311.30557"
         y="-526.85333"
         style="font-style:normal;font-variant:normal;font-weight:normal;font-stretch:normal;font-size:10px;font-family:'Futura ICG';-inkscape-font-specification:'Futura ICG';fill:#ffffff;fill-opacity:1"
         id="tspan3511">A Case Study with Jingju Music</tspan></text>
</g></svg>