<?xml version="1.0" encoding="UTF-8" standalone="no"?>
<!-- Created with Inkscape (http://www.inkscape.org/) -->

<svg
   xmlns:ns0="http://www.iki.fi/pav/software/textext/"
   xmlns:dc="http://purl.org/dc/elements/1.1/"
   xmlns:cc="http://creativecommons.org/ns#"
   xmlns:rdf="http://www.w3.org/1999/02/22-rdf-syntax-ns#"
   xmlns:svg="http://www.w3.org/2000/svg"
   xmlns="http://www.w3.org/2000/svg"
   xmlns:sodipodi="http://sodipodi.sourceforge.net/DTD/sodipodi-0.dtd"
   xmlns:inkscape="http://www.inkscape.org/namespaces/inkscape"
   width="560.49799"
   height="742.24811"
   id="svg2"
   version="1.1"
   inkscape:version="0.48.5 r10040"
   sodipodi:docname="model_obs.svg"
   inkscape:export-filename="E:\UPFWork\PhD\PapersShared\ismir15pf\figs\model.png"
   inkscape:export-xdpi="299.94754"
   inkscape:export-ydpi="299.94754">
  <sodipodi:namedview
     id="base"
     pagecolor="#ffffff"
     bordercolor="#666666"
     borderopacity="1.0"
     inkscape:pageopacity="0.0"
     inkscape:pageshadow="2"
     inkscape:zoom="0.7"
     inkscape:cx="277.50844"
     inkscape:cy="353.73957"
     inkscape:document-units="px"
     inkscape:current-layer="layer1"
     showgrid="false"
     inkscape:window-width="1366"
     inkscape:window-height="706"
     inkscape:window-x="-8"
     inkscape:window-y="-8"
     inkscape:window-maximized="1"
     fit-margin-top="0"
     fit-margin-left="0"
     fit-margin-right="0"
     fit-margin-bottom="0" />
  <defs
     id="defs4" />
  <metadata
     id="metadata7">
    <rdf:RDF>
      <cc:Work
         rdf:about="">
        <dc:format>image/svg+xml</dc:format>
        <dc:type
           rdf:resource="http://purl.org/dc/dcmitype/StillImage" />
        <dc:title />
      </cc:Work>
    </rdf:RDF>
  </metadata>
  <g
     id="layer1"
     inkscape:groupmode="layer"
     inkscape:label="Layer 1"
     transform="translate(-102.60313,-55.523844)">
    <g
       style="font-style:normal;font-variant:normal;font-weight:normal;font-stretch:normal;letter-spacing:normal;word-spacing:normal;text-anchor:start;fill:none;stroke:#000000;stroke-linecap:butt;stroke-linejoin:miter;stroke-miterlimit:10.43299961;stroke-opacity:1;stroke-dasharray:none;stroke-dashoffset:0"
       id="content"
       transform="matrix(6,0,0,-6,-1222.8571,4566.2856)"
       xml:space="preserve"
       stroke-miterlimit="10.433"
       font-style="normal"
       font-variant="normal"
       font-weight="normal"
       font-stretch="normal"
       font-size-adjust="none"
       letter-spacing="normal"
       word-spacing="normal"
       ns0:text="$\\phi_{k-1}$"
       ns0:preamble="">
<path
   style="fill:#000000;stroke-width:0"
   inkscape:connector-curvature="0"
   d="m 227.79,713.79 0,0 0,0.01 0,0 0,0 0,0 0,0 0,0 0,0 0,0.01 0,0 0,0.01 0,0 0,0.01 0,0 0.01,0.01 0,0 0,0.01 0,0.01 0,0.01 0.01,0.01 0,0 0,0.01 0,0 0,0.01 0,0.01 0,0 0,0 0.01,0.01 0,0 0,0 0,0 0,0.01 0,0 0,0 0,0 0,0 0,0 0,0 0,0 c 0,0.01 0,0.1 -0.12,0.1 -0.1,0 -0.11,-0.03 -0.15,-0.2 l -0.58,-2.3 c -1.58,-0.05 -3.05,-1.37 -3.05,-2.72 0,-0.95 0.7,-1.73 1.91,-1.8 l 0.05,0.21 c -0.59,0.03 -1.31,0.38 -1.31,1.38 0,1.19 0.86,2.59 2.34,2.72 l -1.03,-4.1 -0.05,-0.21 c -0.07,-0.31 -0.15,-0.63 -0.23,-0.94 -0.11,-0.47 -0.21,-0.85 -0.21,-0.88 0,-0.1 0.07,-0.1 0.12,-0.1 0.04,0 0.06,0 0.09,0.03 0.03,0.02 0.08,0.26 0.11,0.4 l 0.38,1.49 0.05,0.21 1.03,4.1 c 0.76,-0.04 1.33,-0.5 1.33,-1.38 0,-1.17 -0.86,-2.6 -2.36,-2.72 l -0.05,-0.21 c 1.61,0.04 3.05,1.39 3.05,2.72 0,0.79 -0.52,1.7 -1.91,1.8 z"
   id="path3934" />
<path
   style="fill:#000000;stroke-width:0"
   inkscape:connector-curvature="0"
   d="m 231.55,710.25 0,0 0,0 0,0 0,0 0,0 0,0 0,0.01 0,0 0,0 0,0 0,0.01 0.01,0 0,0 0,0.01 0,0 0,0.01 0,0 0,0.01 0,0.01 0.01,0.01 0,0 0,0 0,0.01 0,0 0,0.01 0,0 0,0 0,0.01 0,0 0,0 0,0 0.01,0 0,0 0,0 0,0.01 0,0 0,0 0,0 0,0 0,0 c 0,0.03 -0.03,0.1 -0.12,0.1 -0.14,0 -0.71,-0.06 -0.89,-0.07 -0.05,-0.01 -0.15,-0.02 -0.15,-0.16 0,-0.1 0.1,-0.1 0.18,-0.1 0.33,0 0.33,-0.05 0.33,-0.1 0,-0.05 -0.01,-0.1 -0.02,-0.16 l -0.98,-3.93 c -0.04,-0.13 -0.04,-0.14 -0.04,-0.16 0,-0.1 0.08,-0.22 0.24,-0.22 0.19,0 0.28,0.14 0.32,0.29 0.01,0.03 0.31,1.25 0.34,1.35 0.49,-0.05 0.89,-0.21 0.89,-0.57 0,-0.03 0,-0.07 -0.01,-0.14 -0.03,-0.1 -0.03,-0.14 -0.03,-0.21 0,-0.5 0.4,-0.72 0.74,-0.72 0.67,0 0.88,1.06 0.88,1.07 0,0.09 -0.09,0.09 -0.11,0.09 -0.1,0 -0.11,-0.04 -0.14,-0.17 -0.08,-0.3 -0.27,-0.79 -0.61,-0.79 -0.19,0 -0.25,0.17 -0.25,0.36 0,0.12 0,0.13 0.05,0.31 0,0.02 0.03,0.14 0.03,0.22 0,0.62 -0.83,0.71 -1.13,0.73 0.2,0.13 0.46,0.36 0.58,0.46 0.36,0.34 0.7,0.66 1.09,0.66 0.09,0 0.18,-0.02 0.23,-0.09 -0.3,-0.05 -0.36,-0.28 -0.36,-0.39 0,-0.15 0.12,-0.25 0.28,-0.25 0.19,0 0.4,0.15 0.4,0.44 0,0.23 -0.17,0.49 -0.54,0.49 -0.4,0 -0.76,-0.29 -1.11,-0.61 -0.3,-0.28 -0.53,-0.5 -0.81,-0.62 z"
   id="path3936" />
<path
   style="fill:#000000;stroke-width:0"
   inkscape:connector-curvature="0"
   d="m 238.95,707.2 0.01,0 0.02,0 0.01,0 0.01,0 0.02,0 0.01,0 0.01,0 0.02,0.01 0.01,0 0.01,0 0.01,0 0.01,0 0.01,0.01 0.01,0 0.01,0 0.01,0.01 0.01,0 0.01,0.01 0.01,0 0.01,0.01 0.01,0.01 0.01,0 0,0.01 0,0 0.01,0.01 0,0 0,0.01 0.01,0 0,0.01 0,0 0,0.01 0,0 0.01,0.01 0,0.01 0,0 0,0.01 0,0.01 0,0 0,0.01 0,0.01 c 0,0.17 -0.16,0.17 -0.28,0.17 h -4.15 c -0.11,0 -0.28,0 -0.28,-0.16 0,-0.18 0.16,-0.18 0.28,-0.18 z"
   id="path3938" />
<path
   style="fill:#000000;stroke-width:0"
   inkscape:connector-curvature="0"
   d="m 242.33,710.05 0,0.01 0,0.01 0,0.01 0,0.01 0,0 0,0.01 0,0.01 0,0.01 0,0 0,0.01 0,0 0,0.01 0,0.01 0,0 0,0.01 0,0 0,0.01 -0.01,0 0,0.01 0,0.01 0,0.01 -0.01,0 0,0.01 0,0.01 -0.01,0 0,0.01 -0.01,0 -0.01,0 -0.01,0.01 0,0 -0.01,0 -0.01,0 -0.01,0 0,0 -0.01,0 0,0.01 -0.01,0 -0.01,0 0,0 -0.01,0 -0.01,0 0,0 -0.01,0 -0.01,0 0,0 -0.01,0 -0.01,0 -0.01,0 -0.01,0 -0.01,0 c -0.44,-0.44 -1.08,-0.45 -1.36,-0.45 v -0.25 c 0.17,0 0.62,0 1.01,0.2 v -3.55 c 0,-0.23 0,-0.32 -0.7,-0.32 h -0.26 v -0.25 c 0.12,0.01 0.98,0.03 1.24,0.03 0.21,0 1.09,-0.02 1.24,-0.03 v 0.25 h -0.26 c -0.7,0 -0.7,0.09 -0.7,0.32 z"
   id="path3940" />
</g>    <g
       ns0:preamble=""
       ns0:text="$\\phi_{k}$"
       word-spacing="normal"
       letter-spacing="normal"
       font-size-adjust="none"
       font-stretch="normal"
       font-weight="normal"
       font-variant="normal"
       font-style="normal"
       stroke-miterlimit="10.433"
       xml:space="preserve"
       transform="matrix(6,0,0,-6,-821.71428,4570.5715)"
       id="g4134"
       style="font-style:normal;font-variant:normal;font-weight:normal;font-stretch:normal;letter-spacing:normal;word-spacing:normal;text-anchor:start;fill:none;stroke:#000000;stroke-linecap:butt;stroke-linejoin:miter;stroke-miterlimit:10.43299961;stroke-opacity:1;stroke-dasharray:none;stroke-dashoffset:0">
<path
   id="path4136"
   d="m 227.79,713.79 0,0 0,0.01 0,0 0,0 0,0 0,0 0,0 0,0 0,0.01 0,0 0,0.01 0,0 0,0.01 0,0 0.01,0.01 0,0 0,0.01 0,0.01 0,0.01 0.01,0.01 0,0 0,0.01 0,0 0,0.01 0,0.01 0,0 0,0 0.01,0.01 0,0 0,0 0,0 0,0.01 0,0 0,0 0,0 0,0 0,0 0,0 0,0 c 0,0.01 0,0.1 -0.12,0.1 -0.1,0 -0.11,-0.03 -0.15,-0.2 l -0.58,-2.3 c -1.58,-0.05 -3.05,-1.37 -3.05,-2.72 0,-0.95 0.7,-1.73 1.91,-1.8 l 0.05,0.21 c -0.59,0.03 -1.31,0.38 -1.31,1.38 0,1.19 0.86,2.59 2.34,2.72 l -1.03,-4.1 -0.05,-0.21 c -0.07,-0.31 -0.15,-0.63 -0.23,-0.94 -0.11,-0.47 -0.21,-0.85 -0.21,-0.88 0,-0.1 0.07,-0.1 0.12,-0.1 0.04,0 0.06,0 0.09,0.03 0.03,0.02 0.08,0.26 0.11,0.4 l 0.38,1.49 0.05,0.21 1.03,4.1 c 0.76,-0.04 1.33,-0.5 1.33,-1.38 0,-1.17 -0.86,-2.6 -2.36,-2.72 l -0.05,-0.21 c 1.61,0.04 3.05,1.39 3.05,2.72 0,0.79 -0.52,1.7 -1.91,1.8 z"
   inkscape:connector-curvature="0"
   style="fill:#000000;stroke-width:0" />
<path
   id="path4138"
   d="m 231.55,710.25 0,0 0,0 0,0 0,0 0,0 0,0 0,0.01 0,0 0,0 0,0 0,0.01 0.01,0 0,0 0,0.01 0,0 0,0.01 0,0 0,0.01 0,0.01 0.01,0.01 0,0 0,0 0,0.01 0,0 0,0.01 0,0 0,0 0,0.01 0,0 0,0 0,0 0.01,0 0,0 0,0 0,0.01 0,0 0,0 0,0 0,0 0,0 c 0,0.03 -0.03,0.1 -0.12,0.1 -0.14,0 -0.71,-0.06 -0.89,-0.07 -0.05,-0.01 -0.15,-0.02 -0.15,-0.16 0,-0.1 0.1,-0.1 0.18,-0.1 0.33,0 0.33,-0.05 0.33,-0.1 0,-0.05 -0.01,-0.1 -0.02,-0.16 l -0.98,-3.93 c -0.04,-0.13 -0.04,-0.14 -0.04,-0.16 0,-0.1 0.08,-0.22 0.24,-0.22 0.19,0 0.28,0.14 0.32,0.29 0.01,0.03 0.31,1.25 0.34,1.35 0.49,-0.05 0.89,-0.21 0.89,-0.57 0,-0.03 0,-0.07 -0.01,-0.14 -0.03,-0.1 -0.03,-0.14 -0.03,-0.21 0,-0.5 0.4,-0.72 0.74,-0.72 0.67,0 0.88,1.06 0.88,1.07 0,0.09 -0.09,0.09 -0.11,0.09 -0.1,0 -0.11,-0.04 -0.14,-0.17 -0.08,-0.3 -0.27,-0.79 -0.61,-0.79 -0.19,0 -0.25,0.17 -0.25,0.36 0,0.12 0,0.13 0.05,0.31 0,0.02 0.03,0.14 0.03,0.22 0,0.62 -0.83,0.71 -1.13,0.73 0.2,0.13 0.46,0.36 0.58,0.46 0.36,0.34 0.7,0.66 1.09,0.66 0.09,0 0.18,-0.02 0.23,-0.09 -0.3,-0.05 -0.36,-0.28 -0.36,-0.39 0,-0.15 0.12,-0.25 0.28,-0.25 0.19,0 0.4,0.15 0.4,0.44 0,0.23 -0.17,0.49 -0.54,0.49 -0.4,0 -0.76,-0.29 -1.11,-0.61 -0.3,-0.28 -0.53,-0.5 -0.81,-0.62 z"
   inkscape:connector-curvature="0"
   style="fill:#000000;stroke-width:0" />
</g>    <g
       id="g4674"
       transform="matrix(1.8463883,0,0,1.8463883,-486.39474,-201.12413)">
      <g
         id="g4508">
        <ellipse
           id="ellipse4510"
           ry="40"
           rx="40"
           cy="180"
           cx="360"
           style="fill:none;stroke:#000000;stroke-width:2"
           sodipodi:cx="360"
           sodipodi:cy="180"
           sodipodi:rx="40"
           sodipodi:ry="40"
           d="m 400,180 c 0,22.09139 -17.90861,40 -40,40 -22.09139,0 -40,-17.90861 -40,-40 0,-22.09139 17.90861,-40 40,-40 22.09139,0 40,17.90861 40,40 z" />
        <text
           id="text4512"
           y="184.8"
           x="360"
           style="font-size:12.80000019px;font-style:normal;font-weight:normal;text-anchor:middle;fill:#000000;font-family:sans-serif"
           font-size="12.8">
          <tspan
             id="tspan4514"
             y="184.8"
             x="360" />
        </text>
      </g>
      <text
         id="text4516"
         y="120"
         x="340"
         style="font-size:12.80000019px;font-style:normal;font-weight:normal;text-anchor:start;fill:#000000;font-family:sans-serif"
         font-size="12.8">
        <tspan
           id="tspan4518"
           y="120"
           x="340" />
      </text>
      <g
         id="g4520">
        <ellipse
           id="ellipse4522"
           ry="40"
           rx="40"
           cy="180"
           cx="560"
           style="fill:none;stroke:#000000;stroke-width:2"
           sodipodi:cx="560"
           sodipodi:cy="180"
           sodipodi:rx="40"
           sodipodi:ry="40"
           d="m 600,180 c 0,22.09139 -17.90861,40 -40,40 -22.09139,0 -40,-17.90861 -40,-40 0,-22.09139 17.90861,-40 40,-40 22.09139,0 40,17.90861 40,40 z" />
        <text
           id="text4524"
           y="184.8"
           x="560"
           style="font-size:12.80000019px;font-style:normal;font-weight:normal;text-anchor:middle;fill:#000000;font-family:sans-serif"
           font-size="12.8">
          <tspan
             id="tspan4526"
             y="184.8"
             x="560" />
        </text>
      </g>
      <g
         id="g4528">
        <ellipse
           id="ellipse4530"
           ry="40"
           rx="40"
           cy="280"
           cx="360"
           style="fill:none;stroke:#000000;stroke-width:2"
           sodipodi:cx="360"
           sodipodi:cy="280"
           sodipodi:rx="40"
           sodipodi:ry="40"
           d="m 400,280 c 0,22.09139 -17.90861,40 -40,40 -22.09139,0 -40,-17.90861 -40,-40 0,-22.09139 17.90861,-40 40,-40 22.09139,0 40,17.90861 40,40 z" />
        <text
           id="text4532"
           y="284.79999"
           x="360"
           style="font-size:12.80000019px;font-style:normal;font-weight:normal;text-anchor:middle;fill:#000000;font-family:sans-serif"
           font-size="12.8">
          <tspan
             id="tspan4534"
             y="284.79999"
             x="360" />
        </text>
      </g>
      <g
         id="g4536">
        <ellipse
           id="ellipse4538"
           ry="40"
           rx="40"
           cy="280"
           cx="560"
           style="fill:none;stroke:#000000;stroke-width:2"
           sodipodi:cx="560"
           sodipodi:cy="280"
           sodipodi:rx="40"
           sodipodi:ry="40"
           d="m 600,280 c 0,22.09139 -17.90861,40 -40,40 -22.09139,0 -40,-17.90861 -40,-40 0,-22.09139 17.90861,-40 40,-40 22.09139,0 40,17.90861 40,40 z" />
        <text
           id="text4540"
           y="284.79999"
           x="560"
           style="font-size:12.80000019px;font-style:normal;font-weight:normal;text-anchor:middle;fill:#000000;font-family:sans-serif"
           font-size="12.8">
          <tspan
             id="tspan4542"
             y="284.79999"
             x="560" />
        </text>
      </g>
      <g
         id="g4544">
        <ellipse
           id="ellipse4546"
           ry="40"
           rx="40"
           cy="500"
           cx="360"
           style="fill:#a1a1a1"
           sodipodi:cx="360"
           sodipodi:cy="500"
           sodipodi:rx="40"
           sodipodi:ry="40"
           d="m 400,500 c 0,22.09139 -17.90861,40 -40,40 -22.09139,0 -40,-17.90861 -40,-40 0,-22.09139 17.90861,-40 40,-40 22.09139,0 40,17.90861 40,40 z" />
        <ellipse
           id="ellipse4548"
           ry="40"
           rx="40"
           cy="500"
           cx="360"
           style="fill:none;stroke:#000000;stroke-width:2"
           sodipodi:cx="360"
           sodipodi:cy="500"
           sodipodi:rx="40"
           sodipodi:ry="40"
           d="m 400,500 c 0,22.09139 -17.90861,40 -40,40 -22.09139,0 -40,-17.90861 -40,-40 0,-22.09139 17.90861,-40 40,-40 22.09139,0 40,17.90861 40,40 z" />
        <text
           id="text4550"
           y="504.79999"
           x="360"
           style="font-size:12.80000019px;font-style:normal;font-weight:normal;text-anchor:middle;fill:#000000;font-family:sans-serif"
           font-size="12.8">
          <tspan
             id="tspan4552"
             y="504.79999"
             x="360" />
        </text>
      </g>
      <g
         id="g4554">
        <ellipse
           id="ellipse4556"
           ry="40"
           rx="40"
           cy="500"
           cx="560"
           style="fill:#a1a1a1"
           sodipodi:cx="560"
           sodipodi:cy="500"
           sodipodi:rx="40"
           sodipodi:ry="40"
           d="m 600,500 c 0,22.09139 -17.90861,40 -40,40 -22.09139,0 -40,-17.90861 -40,-40 0,-22.09139 17.90861,-40 40,-40 22.09139,0 40,17.90861 40,40 z" />
        <ellipse
           id="ellipse4558"
           ry="40"
           rx="40"
           cy="500"
           cx="560"
           style="fill:none;stroke:#000000;stroke-width:2"
           sodipodi:cx="560"
           sodipodi:cy="500"
           sodipodi:rx="40"
           sodipodi:ry="40"
           d="m 600,500 c 0,22.09139 -17.90861,40 -40,40 -22.09139,0 -40,-17.90861 -40,-40 0,-22.09139 17.90861,-40 40,-40 22.09139,0 40,17.90861 40,40 z" />
        <text
           id="text4560"
           y="504.79999"
           x="560"
           style="font-size:12.80000019px;font-style:normal;font-weight:normal;text-anchor:middle;fill:#000000;font-family:sans-serif"
           font-size="12.8">
          <tspan
             id="tspan4562"
             y="504.79999"
             x="560" />
        </text>
      </g>
      <g
         id="g4564">
        <rect
           id="rect4566"
           height="80"
           width="80"
           y="340"
           x="320"
           style="fill:none;stroke:#000000;stroke-width:2" />
        <text
           id="text4568"
           y="384.79999"
           x="360"
           style="font-size:12.80000019px;font-style:normal;font-weight:normal;text-anchor:middle;fill:#000000;font-family:sans-serif"
           font-size="12.8">
          <tspan
             id="tspan4570"
             y="384.79999"
             x="360" />
        </text>
      </g>
      <g
         id="g4572">
        <rect
           id="rect4574"
           height="80"
           width="80"
           y="340"
           x="520"
           style="fill:none;stroke:#000000;stroke-width:2" />
        <text
           id="text4576"
           y="384.79999"
           x="560"
           style="font-size:12.80000019px;font-style:normal;font-weight:normal;text-anchor:middle;fill:#000000;font-family:sans-serif"
           font-size="12.8">
          <tspan
             id="tspan4578"
             y="384.79999"
             x="560" />
        </text>
      </g>
      <g
         id="g4580">
        <line
           id="line4582"
           y2="180"
           x2="513.26398"
           y1="180"
           x1="400"
           style="fill:none;stroke:#000000;stroke-width:2" />
        <polygon
           id="polygon4584"
           points="513.264,180 511.764,177 517.764,180 511.764,183 "
           style="fill:#000000" />
        <polygon
           id="polygon4586"
           points="513.264,180 511.764,177 517.764,180 511.764,183 "
           style="fill:none;stroke:#000000;stroke-width:2" />
      </g>
      <g
         id="g4588">
        <line
           id="line4590"
           y2="261.44501"
           x2="517.14301"
           y1="195.30701"
           x1="396.95499"
           style="fill:none;stroke:#000000;stroke-width:2" />
        <polygon
           id="polygon4592"
           points="517.143,261.445 517.275,258.094 521.086,263.615 514.383,263.35 "
           style="fill:#000000" />
        <polygon
           id="polygon4594"
           points="517.143,261.445 517.275,258.094 521.086,263.615 514.383,263.35 "
           style="fill:none;stroke:#000000;stroke-width:2" />
      </g>
      <g
         id="g4596">
        <line
           id="line4598"
           y2="280"
           x2="513.26398"
           y1="280"
           x1="400"
           style="fill:none;stroke:#000000;stroke-width:2" />
        <polygon
           id="polygon4600"
           points="513.264,280 511.764,277 517.764,280 511.764,283 "
           style="fill:#000000" />
        <polygon
           id="polygon4602"
           points="513.264,280 511.764,277 517.764,280 511.764,283 "
           style="fill:none;stroke:#000000;stroke-width:2" />
      </g>
      <g
         id="g4604" />
      <g
         id="g4620">
        <path
           id="path4622"
           d="M 400.525,478.986 A 149.777,149.777 0 0 0 388.284,308.284"
           style="fill:none;stroke:#000000;stroke-width:2"
           inkscape:connector-curvature="0" />
        <polygon
           id="polygon4624"
           points="400.655,479.064 403.986,479.458 398.183,482.824 398.972,476.162 "
           style="fill:#000000" />
        <polygon
           id="polygon4626"
           points="400.655,479.064 403.986,479.458 398.183,482.824 398.972,476.162 "
           style="fill:none;stroke:#000000;stroke-width:2" />
      </g>
      <g
         id="g4628">
        <path
           id="path4630"
           d="M 600.525,478.986 A 149.777,149.777 0 0 0 588.284,308.284"
           style="fill:none;stroke:#000000;stroke-width:2"
           inkscape:connector-curvature="0" />
        <polygon
           id="polygon4632"
           points="600.655,479.064 603.986,479.458 598.183,482.824 598.972,476.162 "
           style="fill:#000000" />
        <polygon
           id="polygon4634"
           points="600.655,479.064 603.986,479.458 598.183,482.824 598.972,476.162 "
           style="fill:none;stroke:#000000;stroke-width:2" />
      </g>
      <g
         id="g4636">
        <line
           id="line4638"
           y2="453.26401"
           x2="360"
           y1="420"
           x1="360"
           style="fill:none;stroke:#000000;stroke-width:2" />
        <polygon
           id="polygon4640"
           points="360,453.264 363,451.764 360,457.764 357,451.764 "
           style="fill:#000000" />
        <polygon
           id="polygon4642"
           points="360,453.264 363,451.764 360,457.764 357,451.764 "
           style="fill:none;stroke:#000000;stroke-width:2" />
      </g>
      <g
         id="g4644">
        <line
           id="line4646"
           y2="453.26401"
           x2="560"
           y1="420"
           x1="560"
           style="fill:none;stroke:#000000;stroke-width:2" />
        <polygon
           id="polygon4648"
           points="560,453.264 563,451.764 560,457.764 557,451.764 "
           style="fill:#000000" />
        <polygon
           id="polygon4650"
           points="560,453.264 563,451.764 560,457.764 557,451.764 "
           style="fill:none;stroke:#000000;stroke-width:2" />
      </g>
    </g>
    <g
       style="font-style:normal;font-variant:normal;font-weight:normal;font-stretch:normal;letter-spacing:normal;word-spacing:normal;text-anchor:start;fill:none;stroke:#000000;stroke-linecap:butt;stroke-linejoin:miter;stroke-miterlimit:10.43299961;stroke-opacity:1;stroke-dasharray:none;stroke-dashoffset:0"
       id="g4850"
       transform="matrix(6,0,0,-6,-825.71429,4394.2857)"
       xml:space="preserve"
       stroke-miterlimit="10.433"
       font-style="normal"
       font-variant="normal"
       font-weight="normal"
       font-stretch="normal"
       font-size-adjust="none"
       letter-spacing="normal"
       word-spacing="normal"
       ns0:text="$\\dot{\\phi}_{k}$"
       ns0:preamble="">
<path
   style="fill:#000000;stroke-width:0"
   inkscape:connector-curvature="0"
   d="m 227.76,715.89 0,0.02 0,0.03 0,0.02 -0.01,0.02 -0.01,0.03 0,0.02 -0.01,0.03 -0.01,0.02 -0.01,0.02 -0.01,0.03 -0.01,0.02 -0.02,0.02 -0.01,0.02 -0.02,0.02 -0.01,0.02 -0.02,0.02 -0.02,0.02 -0.02,0.01 -0.02,0.02 -0.02,0.02 -0.02,0.01 -0.02,0.01 -0.02,0.02 -0.03,0.01 -0.02,0.01 -0.03,0.01 -0.02,0 -0.03,0.01 -0.02,0.01 -0.03,0 -0.03,0 -0.03,0 c -0.34,0 -0.54,-0.28 -0.54,-0.52 0,-0.27 0.23,-0.53 0.53,-0.53 0.34,0 0.54,0.28 0.54,0.53 z"
   id="path4852" />
<path
   style="fill:#000000;stroke-width:0"
   inkscape:connector-curvature="0"
   d="m 227.79,713.79 0,0 0,0.01 0,0 0,0 0,0 0,0 0,0 0,0 0,0.01 0,0 0,0.01 0,0 0,0.01 0,0 0.01,0.01 0,0 0,0.01 0,0.01 0,0.01 0.01,0.01 0,0 0,0.01 0,0 0,0.01 0,0.01 0,0 0,0 0.01,0.01 0,0 0,0 0,0 0,0.01 0,0 0,0 0,0 0,0 0,0 0,0 0,0 c 0,0.01 0,0.1 -0.12,0.1 -0.1,0 -0.11,-0.03 -0.15,-0.2 l -0.58,-2.3 c -1.58,-0.05 -3.05,-1.37 -3.05,-2.72 0,-0.95 0.7,-1.73 1.91,-1.8 l 0.05,0.21 c -0.59,0.03 -1.31,0.38 -1.31,1.38 0,1.19 0.86,2.59 2.34,2.72 l -1.03,-4.1 -0.05,-0.21 c -0.07,-0.31 -0.15,-0.63 -0.23,-0.94 -0.11,-0.47 -0.21,-0.85 -0.21,-0.88 0,-0.1 0.07,-0.1 0.12,-0.1 0.04,0 0.06,0 0.09,0.03 0.03,0.02 0.08,0.26 0.11,0.4 l 0.38,1.49 0.05,0.21 1.03,4.1 c 0.76,-0.04 1.33,-0.5 1.33,-1.38 0,-1.17 -0.86,-2.6 -2.36,-2.72 l -0.05,-0.21 c 1.61,0.04 3.05,1.39 3.05,2.72 0,0.79 -0.52,1.7 -1.91,1.8 z"
   id="path4854" />
<path
   style="fill:#000000;stroke-width:0"
   inkscape:connector-curvature="0"
   d="m 231.55,710.25 0,0 0,0 0,0 0,0 0,0 0,0 0,0.01 0,0 0,0 0,0 0,0.01 0.01,0 0,0 0,0.01 0,0 0,0.01 0,0 0,0.01 0,0.01 0.01,0.01 0,0 0,0 0,0.01 0,0 0,0.01 0,0 0,0 0,0.01 0,0 0,0 0,0 0.01,0 0,0 0,0 0,0.01 0,0 0,0 0,0 0,0 0,0 c 0,0.03 -0.03,0.1 -0.12,0.1 -0.14,0 -0.71,-0.06 -0.89,-0.07 -0.05,-0.01 -0.15,-0.02 -0.15,-0.16 0,-0.1 0.1,-0.1 0.18,-0.1 0.33,0 0.33,-0.05 0.33,-0.1 0,-0.05 -0.01,-0.1 -0.02,-0.16 l -0.98,-3.93 c -0.04,-0.13 -0.04,-0.14 -0.04,-0.16 0,-0.1 0.08,-0.22 0.24,-0.22 0.19,0 0.28,0.14 0.32,0.29 0.01,0.03 0.31,1.25 0.34,1.35 0.49,-0.05 0.89,-0.21 0.89,-0.57 0,-0.03 0,-0.07 -0.01,-0.14 -0.03,-0.1 -0.03,-0.14 -0.03,-0.21 0,-0.5 0.4,-0.72 0.74,-0.72 0.67,0 0.88,1.06 0.88,1.07 0,0.09 -0.09,0.09 -0.11,0.09 -0.1,0 -0.11,-0.04 -0.14,-0.17 -0.08,-0.3 -0.27,-0.79 -0.61,-0.79 -0.19,0 -0.25,0.17 -0.25,0.36 0,0.12 0,0.13 0.05,0.31 0,0.02 0.03,0.14 0.03,0.22 0,0.62 -0.83,0.71 -1.13,0.73 0.2,0.13 0.46,0.36 0.58,0.46 0.36,0.34 0.7,0.66 1.09,0.66 0.09,0 0.18,-0.02 0.23,-0.09 -0.3,-0.05 -0.36,-0.28 -0.36,-0.39 0,-0.15 0.12,-0.25 0.28,-0.25 0.19,0 0.4,0.15 0.4,0.44 0,0.23 -0.17,0.49 -0.54,0.49 -0.4,0 -0.76,-0.29 -1.11,-0.61 -0.3,-0.28 -0.53,-0.5 -0.81,-0.62 z"
   id="path4856" />
</g>    <g
       ns0:preamble=""
       ns0:text="$\\dot{\\phi}_{k-1}$"
       word-spacing="normal"
       letter-spacing="normal"
       font-size-adjust="none"
       font-stretch="normal"
       font-weight="normal"
       font-variant="normal"
       font-style="normal"
       stroke-miterlimit="10.433"
       xml:space="preserve"
       transform="matrix(6,0,0,-6,-1223.7143,4382)"
       id="g5052"
       style="font-style:normal;font-variant:normal;font-weight:normal;font-stretch:normal;letter-spacing:normal;word-spacing:normal;text-anchor:start;fill:none;stroke:#000000;stroke-linecap:butt;stroke-linejoin:miter;stroke-miterlimit:10.43299961;stroke-opacity:1;stroke-dasharray:none;stroke-dashoffset:0">
<path
   id="path5054"
   d="m 227.76,715.89 0,0.02 0,0.03 0,0.02 -0.01,0.02 -0.01,0.03 0,0.02 -0.01,0.03 -0.01,0.02 -0.01,0.02 -0.01,0.03 -0.01,0.02 -0.02,0.02 -0.01,0.02 -0.02,0.02 -0.01,0.02 -0.02,0.02 -0.02,0.02 -0.02,0.01 -0.02,0.02 -0.02,0.02 -0.02,0.01 -0.02,0.01 -0.02,0.02 -0.03,0.01 -0.02,0.01 -0.03,0.01 -0.02,0 -0.03,0.01 -0.02,0.01 -0.03,0 -0.03,0 -0.03,0 c -0.34,0 -0.54,-0.28 -0.54,-0.52 0,-0.27 0.23,-0.53 0.53,-0.53 0.34,0 0.54,0.28 0.54,0.53 z"
   inkscape:connector-curvature="0"
   style="fill:#000000;stroke-width:0" />
<path
   id="path5056"
   d="m 227.79,713.79 0,0 0,0.01 0,0 0,0 0,0 0,0 0,0 0,0 0,0.01 0,0 0,0.01 0,0 0,0.01 0,0 0.01,0.01 0,0 0,0.01 0,0.01 0,0.01 0.01,0.01 0,0 0,0.01 0,0 0,0.01 0,0.01 0,0 0,0 0.01,0.01 0,0 0,0 0,0 0,0.01 0,0 0,0 0,0 0,0 0,0 0,0 0,0 c 0,0.01 0,0.1 -0.12,0.1 -0.1,0 -0.11,-0.03 -0.15,-0.2 l -0.58,-2.3 c -1.58,-0.05 -3.05,-1.37 -3.05,-2.72 0,-0.95 0.7,-1.73 1.91,-1.8 l 0.05,0.21 c -0.59,0.03 -1.31,0.38 -1.31,1.38 0,1.19 0.86,2.59 2.34,2.72 l -1.03,-4.1 -0.05,-0.21 c -0.07,-0.31 -0.15,-0.63 -0.23,-0.94 -0.11,-0.47 -0.21,-0.85 -0.21,-0.88 0,-0.1 0.07,-0.1 0.12,-0.1 0.04,0 0.06,0 0.09,0.03 0.03,0.02 0.08,0.26 0.11,0.4 l 0.38,1.49 0.05,0.21 1.03,4.1 c 0.76,-0.04 1.33,-0.5 1.33,-1.38 0,-1.17 -0.86,-2.6 -2.36,-2.72 l -0.05,-0.21 c 1.61,0.04 3.05,1.39 3.05,2.72 0,0.79 -0.52,1.7 -1.91,1.8 z"
   inkscape:connector-curvature="0"
   style="fill:#000000;stroke-width:0" />
<path
   id="path5058"
   d="m 231.55,710.25 0,0 0,0 0,0 0,0 0,0 0,0 0,0.01 0,0 0,0 0,0 0,0.01 0.01,0 0,0 0,0.01 0,0 0,0.01 0,0 0,0.01 0,0.01 0.01,0.01 0,0 0,0 0,0.01 0,0 0,0.01 0,0 0,0 0,0.01 0,0 0,0 0,0 0.01,0 0,0 0,0 0,0.01 0,0 0,0 0,0 0,0 0,0 c 0,0.03 -0.03,0.1 -0.12,0.1 -0.14,0 -0.71,-0.06 -0.89,-0.07 -0.05,-0.01 -0.15,-0.02 -0.15,-0.16 0,-0.1 0.1,-0.1 0.18,-0.1 0.33,0 0.33,-0.05 0.33,-0.1 0,-0.05 -0.01,-0.1 -0.02,-0.16 l -0.98,-3.93 c -0.04,-0.13 -0.04,-0.14 -0.04,-0.16 0,-0.1 0.08,-0.22 0.24,-0.22 0.19,0 0.28,0.14 0.32,0.29 0.01,0.03 0.31,1.25 0.34,1.35 0.49,-0.05 0.89,-0.21 0.89,-0.57 0,-0.03 0,-0.07 -0.01,-0.14 -0.03,-0.1 -0.03,-0.14 -0.03,-0.21 0,-0.5 0.4,-0.72 0.74,-0.72 0.67,0 0.88,1.06 0.88,1.07 0,0.09 -0.09,0.09 -0.11,0.09 -0.1,0 -0.11,-0.04 -0.14,-0.17 -0.08,-0.3 -0.27,-0.79 -0.61,-0.79 -0.19,0 -0.25,0.17 -0.25,0.36 0,0.12 0,0.13 0.05,0.31 0,0.02 0.03,0.14 0.03,0.22 0,0.62 -0.83,0.71 -1.13,0.73 0.2,0.13 0.46,0.36 0.58,0.46 0.36,0.34 0.7,0.66 1.09,0.66 0.09,0 0.18,-0.02 0.23,-0.09 -0.3,-0.05 -0.36,-0.28 -0.36,-0.39 0,-0.15 0.12,-0.25 0.28,-0.25 0.19,0 0.4,0.15 0.4,0.44 0,0.23 -0.17,0.49 -0.54,0.49 -0.4,0 -0.76,-0.29 -1.11,-0.61 -0.3,-0.28 -0.53,-0.5 -0.81,-0.62 z"
   inkscape:connector-curvature="0"
   style="fill:#000000;stroke-width:0" />
<path
   id="path5060"
   d="m 238.95,707.2 0.01,0 0.02,0 0.01,0 0.01,0 0.02,0 0.01,0 0.01,0 0.02,0.01 0.01,0 0.01,0 0.01,0 0.01,0 0.01,0.01 0.01,0 0.01,0 0.01,0.01 0.01,0 0.01,0.01 0.01,0 0.01,0.01 0.01,0.01 0.01,0 0,0.01 0,0 0.01,0.01 0,0 0,0.01 0.01,0 0,0.01 0,0 0,0.01 0,0 0.01,0.01 0,0.01 0,0 0,0.01 0,0.01 0,0 0,0.01 0,0.01 c 0,0.17 -0.16,0.17 -0.28,0.17 h -4.15 c -0.11,0 -0.28,0 -0.28,-0.16 0,-0.18 0.16,-0.18 0.28,-0.18 z"
   inkscape:connector-curvature="0"
   style="fill:#000000;stroke-width:0" />
<path
   id="path5062"
   d="m 242.33,710.05 0,0.01 0,0.01 0,0.01 0,0.01 0,0 0,0.01 0,0.01 0,0.01 0,0 0,0.01 0,0 0,0.01 0,0.01 0,0 0,0.01 0,0 0,0.01 -0.01,0 0,0.01 0,0.01 0,0.01 -0.01,0 0,0.01 0,0.01 -0.01,0 0,0.01 -0.01,0 -0.01,0 -0.01,0.01 0,0 -0.01,0 -0.01,0 -0.01,0 0,0 -0.01,0 0,0.01 -0.01,0 -0.01,0 0,0 -0.01,0 -0.01,0 0,0 -0.01,0 -0.01,0 0,0 -0.01,0 -0.01,0 -0.01,0 -0.01,0 -0.01,0 c -0.44,-0.44 -1.08,-0.45 -1.36,-0.45 v -0.25 c 0.17,0 0.62,0 1.01,0.2 v -3.55 c 0,-0.23 0,-0.32 -0.7,-0.32 h -0.26 v -0.25 c 0.12,0.01 0.98,0.03 1.24,0.03 0.21,0 1.09,-0.02 1.24,-0.03 v 0.25 h -0.26 c -0.7,0 -0.7,0.09 -0.7,0.32 z"
   inkscape:connector-curvature="0"
   style="fill:#000000;stroke-width:0" />
</g>    <g
       style="font-style:normal;font-variant:normal;font-weight:normal;font-stretch:normal;letter-spacing:normal;word-spacing:normal;text-anchor:start;fill:none;stroke:#000000;stroke-linecap:butt;stroke-linejoin:miter;stroke-miterlimit:10.43299961;stroke-opacity:1;stroke-dasharray:none;stroke-dashoffset:0"
       id="g5270"
       transform="matrix(6,0,0,-6,-818.28574,4754.2857)"
       xml:space="preserve"
       stroke-miterlimit="10.433"
       font-style="normal"
       font-variant="normal"
       font-weight="normal"
       font-stretch="normal"
       font-size-adjust="none"
       letter-spacing="normal"
       word-spacing="normal"
       ns0:text="$r_{k}$"
       ns0:preamble="">
<path
   style="fill:#000000;stroke-width:0"
   inkscape:connector-curvature="0"
   d="m 224.31,707.71 0,-0.01 -0.01,-0.02 0,-0.01 0,-0.02 -0.01,-0.03 -0.01,-0.03 0,-0.03 -0.01,-0.04 -0.01,-0.03 -0.01,-0.03 0,-0.01 0,-0.02 -0.01,-0.01 0,-0.02 0,-0.01 -0.01,-0.01 0,-0.02 0,-0.01 0,-0.01 0,-0.01 -0.01,-0.01 0,-0.01 0,-0.01 0,0 0,-0.01 0,-0.01 c 0,-0.18 0.14,-0.26 0.29,-0.26 0.12,0 0.3,0.07 0.37,0.27 0.02,0.04 0.36,1.4 0.4,1.58 0.08,0.33 0.26,1.02 0.32,1.29 0.03,0.13 0.31,0.6 0.55,0.82 0.08,0.07 0.37,0.32 0.8,0.32 0.26,0 0.41,-0.11 0.42,-0.11 -0.3,-0.05 -0.52,-0.29 -0.52,-0.55 0,-0.16 0.11,-0.35 0.38,-0.35 0.27,0 0.55,0.23 0.55,0.59 0,0.34 -0.32,0.64 -0.83,0.64 -0.65,0 -1.09,-0.48 -1.27,-0.76 -0.08,0.45 -0.44,0.76 -0.91,0.76 -0.46,0 -0.65,-0.38 -0.74,-0.56 -0.18,-0.34 -0.31,-0.94 -0.31,-0.97 0,-0.1 0.1,-0.1 0.12,-0.1 0.1,0 0.11,0.01 0.17,0.23 0.17,0.71 0.37,1.18 0.73,1.18 0.17,0 0.31,-0.08 0.31,-0.45 0,-0.21 -0.03,-0.32 -0.16,-0.84 z"
   id="path5272" />
<path
   style="fill:#000000;stroke-width:0"
   inkscape:connector-curvature="0"
   d="m 230.11,710.25 0,0 0,0 0,0 0,0 0,0 0,0 0,0.01 0,0 0,0 0,0 0,0.01 0,0 0.01,0 0,0.01 0,0 0,0.01 0,0 0,0.01 0,0.01 0.01,0.01 0,0 0,0 0,0.01 0,0 0,0.01 0,0 0,0 0,0.01 0,0 0,0 0,0 0,0 0,0 0,0 0,0.01 0,0 0,0 0,0 0,0 0,0 c 0,0.03 -0.02,0.1 -0.11,0.1 -0.14,0 -0.71,-0.06 -0.89,-0.07 -0.05,-0.01 -0.15,-0.02 -0.15,-0.16 0,-0.1 0.1,-0.1 0.18,-0.1 0.33,0 0.33,-0.05 0.33,-0.1 0,-0.05 -0.01,-0.1 -0.02,-0.16 l -0.99,-3.93 c -0.03,-0.13 -0.03,-0.14 -0.03,-0.16 0,-0.1 0.08,-0.22 0.24,-0.22 0.18,0 0.27,0.14 0.32,0.29 0.01,0.03 0.31,1.25 0.34,1.35 0.49,-0.05 0.89,-0.21 0.89,-0.57 0,-0.03 0,-0.07 -0.01,-0.14 -0.03,-0.1 -0.03,-0.14 -0.03,-0.21 0,-0.5 0.4,-0.72 0.74,-0.72 0.67,0 0.88,1.06 0.88,1.07 0,0.09 -0.09,0.09 -0.11,0.09 -0.1,0 -0.11,-0.04 -0.14,-0.17 -0.08,-0.3 -0.27,-0.79 -0.61,-0.79 -0.19,0 -0.25,0.17 -0.25,0.36 0,0.12 0,0.13 0.05,0.31 0,0.02 0.03,0.14 0.03,0.22 0,0.62 -0.84,0.71 -1.13,0.73 0.2,0.13 0.46,0.36 0.58,0.46 0.35,0.34 0.7,0.66 1.09,0.66 0.09,0 0.18,-0.02 0.23,-0.09 -0.3,-0.05 -0.36,-0.28 -0.36,-0.39 0,-0.15 0.12,-0.25 0.28,-0.25 0.19,0 0.4,0.15 0.4,0.44 0,0.23 -0.17,0.49 -0.54,0.49 -0.4,0 -0.76,-0.29 -1.11,-0.61 -0.3,-0.28 -0.53,-0.5 -0.81,-0.62 z"
   id="path5274" />
</g>    <g
       ns0:preamble=""
       ns0:text="$r_{k-1}$"
       word-spacing="normal"
       letter-spacing="normal"
       font-size-adjust="none"
       font-stretch="normal"
       font-weight="normal"
       font-variant="normal"
       font-style="normal"
       stroke-miterlimit="10.433"
       xml:space="preserve"
       transform="matrix(6,0,0,-6,-1214.2857,4751.4286)"
       id="g5488"
       style="font-style:normal;font-variant:normal;font-weight:normal;font-stretch:normal;letter-spacing:normal;word-spacing:normal;text-anchor:start;fill:none;stroke:#000000;stroke-linecap:butt;stroke-linejoin:miter;stroke-miterlimit:10.43299961;stroke-opacity:1;stroke-dasharray:none;stroke-dashoffset:0">
<path
   id="path5490"
   d="m 224.31,707.71 0,-0.01 -0.01,-0.02 0,-0.01 0,-0.02 -0.01,-0.03 -0.01,-0.03 0,-0.03 -0.01,-0.04 -0.01,-0.03 -0.01,-0.03 0,-0.01 0,-0.02 -0.01,-0.01 0,-0.02 0,-0.01 -0.01,-0.01 0,-0.02 0,-0.01 0,-0.01 0,-0.01 -0.01,-0.01 0,-0.01 0,-0.01 0,0 0,-0.01 0,-0.01 c 0,-0.18 0.14,-0.26 0.29,-0.26 0.12,0 0.3,0.07 0.37,0.27 0.02,0.04 0.36,1.4 0.4,1.58 0.08,0.33 0.26,1.02 0.32,1.29 0.03,0.13 0.31,0.6 0.55,0.82 0.08,0.07 0.37,0.32 0.8,0.32 0.26,0 0.41,-0.11 0.42,-0.11 -0.3,-0.05 -0.52,-0.29 -0.52,-0.55 0,-0.16 0.11,-0.35 0.38,-0.35 0.27,0 0.55,0.23 0.55,0.59 0,0.34 -0.32,0.64 -0.83,0.64 -0.65,0 -1.09,-0.48 -1.27,-0.76 -0.08,0.45 -0.44,0.76 -0.91,0.76 -0.46,0 -0.65,-0.38 -0.74,-0.56 -0.18,-0.34 -0.31,-0.94 -0.31,-0.97 0,-0.1 0.1,-0.1 0.12,-0.1 0.1,0 0.11,0.01 0.17,0.23 0.17,0.71 0.37,1.18 0.73,1.18 0.17,0 0.31,-0.08 0.31,-0.45 0,-0.21 -0.03,-0.32 -0.16,-0.84 z"
   inkscape:connector-curvature="0"
   style="fill:#000000;stroke-width:0" />
<path
   id="path5492"
   d="m 230.11,710.25 0,0 0,0 0,0 0,0 0,0 0,0 0,0.01 0,0 0,0 0,0 0,0.01 0,0 0.01,0 0,0.01 0,0 0,0.01 0,0 0,0.01 0,0.01 0.01,0.01 0,0 0,0 0,0.01 0,0 0,0.01 0,0 0,0 0,0.01 0,0 0,0 0,0 0,0 0,0 0,0 0,0.01 0,0 0,0 0,0 0,0 0,0 c 0,0.03 -0.02,0.1 -0.11,0.1 -0.14,0 -0.71,-0.06 -0.89,-0.07 -0.05,-0.01 -0.15,-0.02 -0.15,-0.16 0,-0.1 0.1,-0.1 0.18,-0.1 0.33,0 0.33,-0.05 0.33,-0.1 0,-0.05 -0.01,-0.1 -0.02,-0.16 l -0.99,-3.93 c -0.03,-0.13 -0.03,-0.14 -0.03,-0.16 0,-0.1 0.08,-0.22 0.24,-0.22 0.18,0 0.27,0.14 0.32,0.29 0.01,0.03 0.31,1.25 0.34,1.35 0.49,-0.05 0.89,-0.21 0.89,-0.57 0,-0.03 0,-0.07 -0.01,-0.14 -0.03,-0.1 -0.03,-0.14 -0.03,-0.21 0,-0.5 0.4,-0.72 0.74,-0.72 0.67,0 0.88,1.06 0.88,1.07 0,0.09 -0.09,0.09 -0.11,0.09 -0.1,0 -0.11,-0.04 -0.14,-0.17 -0.08,-0.3 -0.27,-0.79 -0.61,-0.79 -0.19,0 -0.25,0.17 -0.25,0.36 0,0.12 0,0.13 0.05,0.31 0,0.02 0.03,0.14 0.03,0.22 0,0.62 -0.84,0.71 -1.13,0.73 0.2,0.13 0.46,0.36 0.58,0.46 0.35,0.34 0.7,0.66 1.09,0.66 0.09,0 0.18,-0.02 0.23,-0.09 -0.3,-0.05 -0.36,-0.28 -0.36,-0.39 0,-0.15 0.12,-0.25 0.28,-0.25 0.19,0 0.4,0.15 0.4,0.44 0,0.23 -0.17,0.49 -0.54,0.49 -0.4,0 -0.76,-0.29 -1.11,-0.61 -0.3,-0.28 -0.53,-0.5 -0.81,-0.62 z"
   inkscape:connector-curvature="0"
   style="fill:#000000;stroke-width:0" />
<path
   id="path5494"
   d="m 237.51,707.2 0.01,0 0.01,0 0.01,0 0.02,0 0.02,0 0.01,0 0.01,0 0.01,0.01 0.02,0 0.01,0 0.01,0 0.01,0 0.01,0.01 0.01,0 0.01,0 0.01,0.01 0.01,0 0.01,0.01 0.01,0 0.01,0.01 0.01,0.01 0.01,0 0,0.01 0,0 0.01,0.01 0,0 0,0.01 0,0 0.01,0.01 0,0 0,0.01 0,0 0,0.01 0.01,0.01 0,0 0,0.01 0,0.01 0,0 0,0.01 0,0.01 c 0,0.17 -0.16,0.17 -0.28,0.17 h -4.15 c -0.11,0 -0.28,0 -0.28,-0.16 0,-0.18 0.16,-0.18 0.28,-0.18 z"
   inkscape:connector-curvature="0"
   style="fill:#000000;stroke-width:0" />
<path
   id="path5496"
   d="m 240.89,710.05 0,0.01 0,0.01 0,0.01 0,0.01 0,0 0,0.01 0,0.01 0,0.01 0,0 0,0.01 0,0 0,0.01 0,0.01 0,0 0,0.01 -0.01,0 0,0.01 0,0 0,0.01 0,0.01 0,0.01 -0.01,0 0,0.01 -0.01,0.01 0,0 -0.01,0.01 0,0 -0.01,0 -0.01,0.01 -0.01,0 0,0 -0.01,0 -0.01,0 0,0 -0.01,0 -0.01,0.01 0,0 -0.01,0 0,0 -0.01,0 -0.01,0 0,0 -0.01,0 -0.01,0 -0.01,0 0,0 -0.01,0 -0.01,0 -0.01,0 -0.01,0 c -0.44,-0.44 -1.08,-0.45 -1.36,-0.45 v -0.25 c 0.16,0 0.62,0 1.01,0.2 v -3.55 c 0,-0.23 0,-0.32 -0.7,-0.32 h -0.26 v -0.25 c 0.12,0.01 0.98,0.03 1.23,0.03 0.22,0 1.1,-0.02 1.25,-0.03 v 0.25 h -0.26 c -0.7,0 -0.7,0.09 -0.7,0.32 z"
   inkscape:connector-curvature="0"
   style="fill:#000000;stroke-width:0" />
</g>    <g
       id="g3184"
       transform="matrix(6,0,0,-6,-823.02283,4972.4779)"
       xml:space="preserve"
       stroke="black"
       stroke-linecap="butt"
       stroke-linejoin="miter"
       stroke-miterlimit="10.433"
       stroke-dasharray="none"
       stroke-dashoffset="0"
       stroke-opacity="1"
       fill="none"
       fill-rule="evenodd"
       fill-opacity="1"
       font-style="normal"
       font-variant="normal"
       font-weight="normal"
       font-stretch="normal"
       font-size-adjust="none"
       letter-spacing="normal"
       word-spacing="normal"
       text-anchor="start"
       ns0:text="$\\mathbf{y}_{k}$"
       ns0:preamble=""
       style="font-style:normal;font-variant:normal;font-weight:normal;font-stretch:normal;letter-spacing:normal;word-spacing:normal;text-anchor:start;fill:none;stroke:#000000;stroke-linecap:butt;stroke-linejoin:miter;stroke-miterlimit:10.43299961;stroke-opacity:1;stroke-dasharray:none;stroke-dashoffset:0">
<path
   d="M228.48,710.87 L228.49,710.89 L228.5,710.92 L228.51,710.93 L228.52,710.94 L228.52,710.95 L228.53,710.96 L228.54,710.97 L228.55,710.98 L228.56,710.99 L228.57,710.99 L228.58,711 L228.6,711.01 L228.61,711.02 L228.63,711.02 L228.65,711.03 L228.67,711.04 L228.69,711.04 L228.72,711.05 L228.75,711.05 L228.76,711.05 L228.77,711.06 L228.79,711.06 L228.81,711.06 L228.82,711.06 L228.84,711.06 L228.86,711.06 L228.88,711.07 L228.9,711.07 L228.91,711.07 L228.94,711.07 L228.96,711.07 L228.98,711.07 L229,711.07 L229.03,711.07 L229.05,711.07 L229.08,711.07 L229.1,711.08 L229.13,711.08 L229.16,711.08 L229.18,711.08 L229.21,711.08 V711.54 C228.97,711.52,228.68,711.51,228.43,711.51 C228.18,711.51,227.73,711.53,227.52,711.54 V711.08 C227.54,711.08,227.99,711.08,227.99,710.96 C227.99,710.95,227.95,710.85,227.94,710.84 L226.79,708.39 L225.52,711.08 H226.06 V711.54 C225.74,711.52,224.84,711.51,224.83,711.51 C224.55,711.51,224.1,711.53,223.69,711.54 V711.08 H224.33 L226.19,707.13 L225.96,706.65 C225.74,706.17,225.43,705.49,224.72,705.49 C224.58,705.49,224.56,705.5,224.48,705.53 C224.57,705.57,224.8,705.71,224.8,706.06 C224.8,706.39,224.56,706.63,224.22,706.63 C223.94,706.63,223.65,706.44,223.65,706.05 C223.65,705.54,224.12,705.13,224.72,705.13 C225.49,705.13,226.06,705.75,226.33,706.32 Z "
   stroke-width="0"
   fill="black"
   id="path3186" />
<path
   d="M231.66,710.25 L231.66,710.25 L231.66,710.25 L231.66,710.25 L231.66,710.25 L231.66,710.25 L231.66,710.25 L231.66,710.26 L231.66,710.26 L231.66,710.26 L231.66,710.26 L231.67,710.27 L231.67,710.27 L231.67,710.27 L231.67,710.28 L231.67,710.28 L231.67,710.29 L231.67,710.29 L231.67,710.3 L231.68,710.31 L231.68,710.32 L231.68,710.32 L231.68,710.32 L231.68,710.33 L231.68,710.33 L231.68,710.34 L231.68,710.34 L231.68,710.34 L231.69,710.35 L231.69,710.35 L231.69,710.35 L231.69,710.35 L231.69,710.35 L231.69,710.35 L231.69,710.35 L231.69,710.36 L231.69,710.36 L231.69,710.36 L231.69,710.36 L231.69,710.36 L231.69,710.36 C231.69,710.39,231.66,710.46,231.57,710.46 C231.44,710.46,230.86,710.4,230.68,710.39 C230.63,710.38,230.53,710.37,230.53,710.23 C230.53,710.13,230.63,710.13,230.71,710.13 C231.05,710.13,231.05,710.08,231.05,710.03 C231.05,709.98,231.03,709.93,231.02,709.87 L230.04,705.94 C230,705.81,230,705.8,230,705.78 C230,705.68,230.09,705.56,230.24,705.56 C230.43,705.56,230.52,705.7,230.56,705.85 C230.57,705.88,230.87,707.1,230.9,707.2 C231.39,707.15,231.79,706.99,231.79,706.63 C231.79,706.6,231.79,706.56,231.78,706.49 C231.75,706.39,231.75,706.35,231.75,706.28 C231.75,705.78,232.15,705.56,232.49,705.56 C233.16,705.56,233.37,706.62,233.37,706.63 C233.37,706.72,233.28,706.72,233.26,706.72 C233.16,706.72,233.16,706.68,233.12,706.55 C233.04,706.25,232.85,705.76,232.51,705.76 C232.32,705.76,232.26,705.93,232.26,706.12 C232.26,706.24,232.26,706.25,232.31,706.43 C232.31,706.45,232.34,706.57,232.34,706.65 C232.34,707.27,231.51,707.36,231.21,707.38 C231.41,707.51,231.67,707.74,231.79,707.84 C232.15,708.18,232.49,708.5,232.88,708.5 C232.97,708.5,233.06,708.48,233.11,708.41 C232.82,708.36,232.75,708.13,232.75,708.02 C232.75,707.87,232.87,707.77,233.03,707.77 C233.22,707.77,233.43,707.92,233.43,708.21 C233.43,708.44,233.26,708.7,232.89,708.7 C232.49,708.7,232.13,708.41,231.78,708.09 C231.49,707.81,231.26,707.59,230.97,707.47 Z "
   stroke-width="0"
   fill="black"
   id="path3188" />
</g>    <g
       style="font-style:normal;font-variant:normal;font-weight:normal;font-stretch:normal;letter-spacing:normal;word-spacing:normal;text-anchor:start;fill:none;stroke:#000000;stroke-linecap:butt;stroke-linejoin:miter;stroke-miterlimit:10.43299961;stroke-opacity:1;stroke-dasharray:none;stroke-dashoffset:0"
       ns0:preamble=""
       ns0:text="$\\mathbf{y}_{k-1}$"
       text-anchor="start"
       word-spacing="normal"
       letter-spacing="normal"
       font-size-adjust="none"
       font-stretch="normal"
       font-weight="normal"
       font-variant="normal"
       font-style="normal"
       fill-opacity="1"
       fill-rule="evenodd"
       fill="none"
       stroke-opacity="1"
       stroke-dashoffset="0"
       stroke-dasharray="none"
       stroke-miterlimit="10.433"
       stroke-linejoin="miter"
       stroke-linecap="butt"
       stroke="black"
       xml:space="preserve"
       transform="matrix(6,0,0,-6,-1217.1429,4968.5714)"
       id="g3393">
<path
   id="path3395"
   fill="black"
   stroke-width="0"
   d="M228.48,710.87 L228.49,710.89 L228.5,710.92 L228.51,710.93 L228.52,710.94 L228.52,710.95 L228.53,710.96 L228.54,710.97 L228.55,710.98 L228.56,710.99 L228.57,710.99 L228.58,711 L228.6,711.01 L228.61,711.02 L228.63,711.02 L228.65,711.03 L228.67,711.04 L228.69,711.04 L228.72,711.05 L228.75,711.05 L228.76,711.05 L228.77,711.06 L228.79,711.06 L228.81,711.06 L228.82,711.06 L228.84,711.06 L228.86,711.06 L228.88,711.07 L228.9,711.07 L228.91,711.07 L228.94,711.07 L228.96,711.07 L228.98,711.07 L229,711.07 L229.03,711.07 L229.05,711.07 L229.08,711.07 L229.1,711.08 L229.13,711.08 L229.16,711.08 L229.18,711.08 L229.21,711.08 V711.54 C228.97,711.52,228.68,711.51,228.43,711.51 C228.18,711.51,227.73,711.53,227.52,711.54 V711.08 C227.54,711.08,227.99,711.08,227.99,710.96 C227.99,710.95,227.95,710.85,227.94,710.84 L226.79,708.39 L225.52,711.08 H226.06 V711.54 C225.74,711.52,224.84,711.51,224.83,711.51 C224.55,711.51,224.1,711.53,223.69,711.54 V711.08 H224.33 L226.19,707.13 L225.96,706.65 C225.74,706.17,225.43,705.49,224.72,705.49 C224.58,705.49,224.56,705.5,224.48,705.53 C224.57,705.57,224.8,705.71,224.8,706.06 C224.8,706.39,224.56,706.63,224.22,706.63 C223.94,706.63,223.65,706.44,223.65,706.05 C223.65,705.54,224.12,705.13,224.72,705.13 C225.49,705.13,226.06,705.75,226.33,706.32 Z " />
<path
   id="path3397"
   fill="black"
   stroke-width="0"
   d="M231.66,710.25 L231.66,710.25 L231.66,710.25 L231.66,710.25 L231.66,710.25 L231.66,710.25 L231.66,710.25 L231.66,710.26 L231.66,710.26 L231.66,710.26 L231.66,710.26 L231.67,710.27 L231.67,710.27 L231.67,710.27 L231.67,710.28 L231.67,710.28 L231.67,710.29 L231.67,710.29 L231.67,710.3 L231.68,710.31 L231.68,710.32 L231.68,710.32 L231.68,710.32 L231.68,710.33 L231.68,710.33 L231.68,710.34 L231.68,710.34 L231.68,710.34 L231.69,710.35 L231.69,710.35 L231.69,710.35 L231.69,710.35 L231.69,710.35 L231.69,710.35 L231.69,710.35 L231.69,710.36 L231.69,710.36 L231.69,710.36 L231.69,710.36 L231.69,710.36 L231.69,710.36 C231.69,710.39,231.66,710.46,231.57,710.46 C231.44,710.46,230.86,710.4,230.68,710.39 C230.63,710.38,230.53,710.37,230.53,710.23 C230.53,710.13,230.63,710.13,230.71,710.13 C231.05,710.13,231.05,710.08,231.05,710.03 C231.05,709.98,231.03,709.93,231.02,709.87 L230.04,705.94 C230,705.81,230,705.8,230,705.78 C230,705.68,230.09,705.56,230.24,705.56 C230.43,705.56,230.52,705.7,230.56,705.85 C230.57,705.88,230.87,707.1,230.9,707.2 C231.39,707.15,231.79,706.99,231.79,706.63 C231.79,706.6,231.79,706.56,231.78,706.49 C231.75,706.39,231.75,706.35,231.75,706.28 C231.75,705.78,232.15,705.56,232.49,705.56 C233.16,705.56,233.37,706.62,233.37,706.63 C233.37,706.72,233.28,706.72,233.26,706.72 C233.16,706.72,233.16,706.68,233.12,706.55 C233.04,706.25,232.85,705.76,232.51,705.76 C232.32,705.76,232.26,705.93,232.26,706.12 C232.26,706.24,232.26,706.25,232.31,706.43 C232.31,706.45,232.34,706.57,232.34,706.65 C232.34,707.27,231.51,707.36,231.21,707.38 C231.41,707.51,231.67,707.74,231.79,707.84 C232.15,708.18,232.49,708.5,232.88,708.5 C232.97,708.5,233.06,708.48,233.11,708.41 C232.82,708.36,232.75,708.13,232.75,708.02 C232.75,707.87,232.87,707.77,233.03,707.77 C233.22,707.77,233.43,707.92,233.43,708.21 C233.43,708.44,233.26,708.7,232.89,708.7 C232.49,708.7,232.13,708.41,231.78,708.09 C231.49,707.81,231.26,707.59,230.97,707.47 Z " />
<path
   id="path3399"
   fill="black"
   stroke-width="0"
   d="M239.07,707.2 L239.08,707.2 L239.09,707.2 L239.1,707.2 L239.11,707.2 L239.13,707.2 L239.14,707.2 L239.16,707.2 L239.17,707.21 L239.18,707.21 L239.19,707.21 L239.2,707.21 L239.21,707.21 L239.22,707.22 L239.24,707.22 L239.25,707.22 L239.26,707.23 L239.27,707.23 L239.28,707.24 L239.28,707.24 L239.29,707.25 L239.3,707.26 L239.31,707.26 L239.31,707.27 L239.32,707.27 L239.32,707.28 L239.32,707.28 L239.32,707.29 L239.33,707.29 L239.33,707.3 L239.33,707.3 L239.33,707.31 L239.34,707.31 L239.34,707.32 L239.34,707.33 L239.34,707.33 L239.34,707.34 L239.34,707.35 L239.34,707.35 L239.34,707.36 L239.34,707.37 C239.34,707.54,239.18,707.54,239.07,707.54 H234.91 C234.8,707.54,234.63,707.54,234.63,707.38 C234.63,707.2,234.79,707.2,234.91,707.2 Z " />
<path
   id="path3401"
   fill="black"
   stroke-width="0"
   d="M242.44,710.05 L242.44,710.06 L242.44,710.07 L242.44,710.08 L242.44,710.09 L242.44,710.09 L242.44,710.1 L242.44,710.11 L242.44,710.12 L242.44,710.12 L242.44,710.13 L242.44,710.13 L242.44,710.14 L242.44,710.15 L242.44,710.15 L242.44,710.16 L242.44,710.16 L242.44,710.17 L242.43,710.17 L242.43,710.18 L242.43,710.19 L242.43,710.2 L242.42,710.2 L242.42,710.21 L242.42,710.22 L242.41,710.22 L242.41,710.23 L242.4,710.23 L242.39,710.23 L242.38,710.24 L242.38,710.24 L242.37,710.24 L242.36,710.24 L242.35,710.24 L242.35,710.24 L242.34,710.24 L242.34,710.25 L242.33,710.25 L242.32,710.25 L242.32,710.25 L242.31,710.25 L242.3,710.25 L242.3,710.25 L242.29,710.25 L242.28,710.25 L242.28,710.25 L242.27,710.25 L242.26,710.25 L242.25,710.25 L242.24,710.25 L242.23,710.25 C241.79,709.81,241.15,709.8,240.87,709.8 V709.55 C241.04,709.55,241.49,709.55,241.88,709.75 V706.2 C241.88,705.97,241.88,705.88,241.18,705.88 H240.92 V705.63 C241.04,705.64,241.9,705.66,242.16,705.66 C242.37,705.66,243.25,705.64,243.4,705.63 V705.88 H243.14 C242.44,705.88,242.44,705.97,242.44,706.2 Z " />
</g>  </g>
</svg>
